<svg width="13" height="8" viewBox="0 0 13 8" fill="none" xmlns="http://www.w3.org/2000/svg">
<path d="M0.931481 0.631432C1.09557 0.467395 1.31809 0.375244 1.55011 0.375244C1.78212 0.375244 2.00464 0.467395 2.16873 0.631432L6.49998 4.96268L10.8312 0.631432C10.9963 0.472044 11.2173 0.383849 11.4467 0.385842C11.6761 0.387836 11.8956 0.479859 12.0578 0.642091C12.2201 0.804323 12.3121 1.02378 12.3141 1.25321C12.3161 1.48263 12.2279 1.70366 12.0685 1.86868L7.11861 6.81856C6.95452 6.98259 6.732 7.07475 6.49998 7.07475C6.26796 7.07475 6.04544 6.98259 5.88136 6.81856L0.931481 1.86868C0.767444 1.7046 0.675293 1.48208 0.675293 1.25006C0.675293 1.01804 0.767444 0.795519 0.931481 0.631432Z" fill="white"/>
</svg>
