<svg width="108" height="95" viewBox="0 0 108 95" fill="none" xmlns="http://www.w3.org/2000/svg">
<path d="M14.7992 0C21.2602 0 26.0312 3.46649 27.3832 8.95361L21.5239 10.578C20.6232 7.25606 18.4429 5.30683 14.7992 5.30683C9.80352 5.30683 6.75967 9.02501 6.75967 13.9731C6.75967 18.9193 9.65124 22.6375 14.6859 22.6375C18.4039 22.6375 20.8851 20.724 21.8229 17.3664L27.645 18.955C25.9179 24.551 21.1841 27.9461 14.6469 27.9461C6.04468 27.9461 0.560547 21.9895 0.560547 13.9731C0.562404 6.06546 6.38639 0 14.7992 0Z" fill="#2DC6CB"/>
<path d="M46.0157 17.9088V0.433594H52.0254V17.7643C52.0254 23.9386 47.442 27.946 40.7935 27.946C34.1449 27.946 29.5986 23.9386 29.5986 17.7643V0.433594H35.6083V17.9088C35.6083 20.7613 37.6363 22.6391 40.7916 22.6391C44.0249 22.6373 46.0157 20.7613 46.0157 17.9088Z" fill="#2DC6CB"/>
<path d="M56.5723 0.433594H62.582V22.2054H75.1288V27.5122H56.5723V0.433594Z" fill="#2DC6CB"/>
<path d="M83.395 5.74043H75.3555V0.433594H97.4443V5.74043H89.4047V27.5122H83.395V5.74043Z" fill="#2DC6CB"/>
<path d="M2.17871 34.1777H8.56541L20.8857 52.9168V34.1777H26.5202V61.2563H20.1335L7.77612 42.3727V61.2563H2.17871V34.1777Z" fill="#9C88E8"/>
<path d="M41.8861 34.1777H48.3471L59.0145 61.2563H52.7411L50.0371 53.9985H39.9324L37.2284 61.2563H31.2188L41.8861 34.1777ZM48.0834 48.763L45.0024 40.4949L41.9214 48.763H48.0834Z" fill="#9C88E8"/>
<path d="M63.7109 34.1777H69.7206V61.2563H63.7109V34.1777Z" fill="#9C88E8"/>
<path d="M77.2715 34.1777H83.2812V55.9495H95.828V61.2563H77.2715V34.1777Z" fill="#9C88E8"/>
<path d="M8.03955 73.2282H0V67.9214H22.0888V73.2282H14.0492V95H8.03955V73.2282Z" fill="#FC8FB6"/>
<path d="M26.5215 67.9214H45.6797V73.0836H32.533V78.3905H41.4733V83.5527H32.533V89.8359H46.0567V94.9982H26.5215V67.9214Z" fill="#FC8FB6"/>
<path d="M58.6392 67.9214H65.1002L75.7694 95H69.496L66.792 87.7421H56.6873L53.9833 95H47.9736L58.6392 67.9214ZM64.8383 82.5067L61.7573 74.2385L58.6763 82.5067H64.8383Z" fill="#FC8FB6"/>
<path d="M79.5263 67.9214H85.874L93.9135 78.1388L101.689 67.9214H108V95H102.289V75.4309L94.4001 85.6126H93.1224L85.2723 75.6469V95H79.5244V67.9214H79.5263Z" fill="#FC8FB6"/>
</svg>
