<svg width="24" height="24" viewBox="0 0 24 24" fill="none" xmlns="http://www.w3.org/2000/svg">
<path d="M12.005 1C10.0933 1.00205 8.21509 1.50135 6.55498 2.44881C4.89487 3.39627 3.51003 4.75926 2.5366 6.40379C1.56318 8.04831 1.03469 9.91774 1.0031 11.8283C0.971509 13.7388 1.4379 15.6247 2.35643 17.3005L1 23L6.70211 21.6442C8.17281 22.4506 9.80848 22.9103 11.4841 22.9881C13.1598 23.066 14.831 22.7599 16.3702 22.0933C17.9094 21.4267 19.2758 20.4172 20.3649 19.142C21.454 17.8668 22.2371 16.3596 22.6543 14.7356C23.0714 13.1115 23.1116 11.4137 22.7718 9.77175C22.432 8.12981 21.7212 6.58725 20.6937 5.26194C19.6662 3.93662 18.3491 2.86364 16.8432 2.12497C15.3373 1.38631 13.6824 1.00152 12.005 1V1ZM6.50249 5.9986H9.50198C9.63774 5.9986 9.76793 6.05251 9.86392 6.14846C9.95992 6.24441 10.0138 6.37454 10.0138 6.51023C9.99705 7.19254 10.1117 7.8717 10.3517 8.5107C10.455 8.7246 10.4777 8.96856 10.4157 9.19785C10.3536 9.42714 10.211 9.62639 10.0138 9.75907L8.96453 10.7823C9.42979 11.6905 10.0381 12.518 10.7663 13.233C11.4759 13.9727 12.3004 14.5929 13.2078 15.0698L14.2316 14.0209C14.7434 13.5093 14.9789 13.5093 15.4805 13.6833C16.1198 13.9231 16.7993 14.0377 17.4819 14.0209C17.6156 14.0272 17.7422 14.0831 17.8369 14.1777C17.9316 14.2723 17.9875 14.3989 17.9937 14.5326V17.5307C17.9875 17.6644 17.9316 17.7909 17.8369 17.8856C17.7422 17.9802 17.6156 18.0361 17.4819 18.0423C14.4709 17.9112 11.6168 16.6636 9.47639 14.5428C7.35134 12.4056 6.10254 9.55144 5.97527 6.54093C5.97649 6.4001 6.03196 6.26516 6.13015 6.16416C6.22834 6.06316 6.36169 6.00386 6.50249 5.9986V5.9986Z" stroke="#2DC6CB" stroke-width="0.785714" stroke-linecap="round" stroke-linejoin="round"/>
</svg>
