<svg width="24" height="20" viewBox="0 0 24 20" fill="none" xmlns="http://www.w3.org/2000/svg">
<path d="M22.009 0.571289C22.687 0.571289 23.1984 1.17887 22.9248 2.30896L19.6065 18.2883C19.3745 19.4245 18.7025 19.6979 17.7748 19.1693L9.85949 13.1968C9.82879 13.1743 9.80379 13.1446 9.78653 13.1103C9.76928 13.076 9.76029 13.0379 9.76029 12.9993C9.76029 12.9607 9.76928 12.9227 9.78653 12.8883C9.80379 12.854 9.82879 12.8244 9.85949 12.8019L18.9999 4.36866C19.4162 3.99196 18.9107 3.80968 18.3636 4.14993L6.89198 11.5442C6.85719 11.5673 6.81769 11.5821 6.77648 11.5874C6.73526 11.5927 6.69341 11.5883 6.65411 11.5745L1.78359 10.0009C0.701256 9.67889 0.701256 8.91942 2.02742 8.37868L21.5154 0.698881C21.67 0.623128 21.8378 0.579746 22.009 0.571289V0.571289Z" stroke="#FC8FB6" stroke-width="0.785714" stroke-linecap="round" stroke-linejoin="round"/>
</svg>
