<svg width="24" height="22" viewBox="0 0 24 22" fill="none" xmlns="http://www.w3.org/2000/svg">
<path d="M6.92313 8.0041L12 1L17.0769 8.0041M2.07891 8.0041C1.79452 8.0038 1.52154 8.11981 1.31946 8.32685C1.11738 8.5339 1.00258 8.81519 1.00006 9.10943C0.998911 9.21142 1.01319 9.31297 1.04237 9.41039L3.7765 19.3858C3.90322 19.8517 4.17404 20.2619 4.5475 20.5534C4.92095 20.8449 5.37646 21.0018 5.84428 21H18.1558C18.6245 21.0004 19.0807 20.8432 19.4555 20.5521C19.8304 20.2609 20.1037 19.8516 20.2341 19.3858L22.9683 9.41039L23 9.10943C22.9975 8.81519 22.8827 8.5339 22.6806 8.32685C22.4785 8.11981 22.2055 8.0038 21.9212 8.0041H2.07891ZM12.3025 16.7631C11.863 16.7608 11.4339 16.6238 11.0695 16.3695C10.7051 16.1152 10.4217 15.7549 10.255 15.334C10.0883 14.9132 10.0458 14.4507 10.1329 14.0049C10.22 13.5591 10.4328 13.15 10.7444 12.8292C11.0559 12.5084 11.4524 12.2903 11.8837 12.2024C12.3149 12.1145 12.7617 12.1607 13.1676 12.3353C13.5735 12.5099 13.9203 12.8049 14.1643 13.1833C14.4083 13.5616 14.5385 14.0062 14.5385 14.461C14.5357 15.0726 14.2989 15.6582 13.8798 16.0897C13.4608 16.5211 12.8937 16.7632 12.3025 16.7631Z" stroke="black" stroke-width="2" stroke-linejoin="round"/>
</svg>
