<svg width="30" height="30" viewBox="0 0 30 30" fill="none" xmlns="http://www.w3.org/2000/svg">
<path d="M15.0063 1C12.5733 1.00261 10.1828 1.63809 8.06998 2.84394C5.95711 4.0498 4.19458 5.78452 2.95567 7.87755C1.71677 9.97058 1.04415 12.3499 1.00394 14.7815C0.963739 17.213 1.55733 19.6132 2.72636 21.746L1 29L8.25724 27.2744C10.129 28.3008 12.2108 28.8858 14.3434 28.9849C16.4761 29.084 18.6032 28.6944 20.5621 27.846C22.5211 26.9976 24.2601 25.7128 25.6463 24.0898C27.0324 22.4668 28.029 20.5486 28.56 18.4816C29.0909 16.4147 29.1421 14.2538 28.7096 12.164C28.2772 10.0743 27.3725 8.11104 26.0647 6.42428C24.757 4.73752 23.0807 3.3719 21.1641 2.43178C19.2475 1.49167 17.1413 1.00193 15.0063 1V1ZM8.00317 7.36186H11.8207C11.9935 7.36186 12.1592 7.43046 12.2814 7.55258C12.4035 7.6747 12.4722 7.84032 12.4722 8.01302C12.4508 8.88141 12.5968 9.74581 12.9021 10.5591C13.0336 10.8313 13.0625 11.1418 12.9836 11.4336C12.9046 11.7255 12.723 11.979 12.4722 12.1479L11.1367 13.4502C11.7288 14.6061 12.5031 15.6592 13.4298 16.5693C14.3329 17.5107 15.3823 18.3001 16.5373 18.907L17.8402 17.5721C18.4916 16.9209 18.7913 16.9209 19.4297 17.1423C20.2434 17.4475 21.1081 17.5935 21.9769 17.5721C22.1471 17.58 22.3083 17.6512 22.4288 17.7716C22.5493 17.8921 22.6205 18.0531 22.6284 18.2233V22.0391C22.6205 22.2092 22.5493 22.3703 22.4288 22.4907C22.3083 22.6112 22.1471 22.6823 21.9769 22.6902C18.1448 22.5234 14.5123 20.9354 11.7881 18.2363C9.08353 15.5162 7.49414 11.8836 7.33217 8.05209C7.33372 7.87286 7.40431 7.70112 7.52928 7.57257C7.65425 7.44402 7.82397 7.36855 8.00317 7.36186V7.36186Z" stroke="url(#paint0_linear_10_12)" stroke-linecap="round" stroke-linejoin="round"/>
<defs>
<linearGradient id="paint0_linear_10_12" x1="15" y1="1" x2="15" y2="29" gradientUnits="userSpaceOnUse">
<stop stop-color="#FC8FB6"/>
<stop offset="1" stop-color="#9C88E8"/>
</linearGradient>
</defs>
</svg>
