<svg width="30" height="26" viewBox="0 0 30 26" fill="none" xmlns="http://www.w3.org/2000/svg">
<path d="M27.7387 1C28.6016 1 29.2525 1.77328 28.9043 3.21159L24.681 23.5489C24.3858 24.9949 23.5305 25.3429 22.3498 24.6702L12.2757 17.0688C12.2366 17.0402 12.2048 17.0024 12.1829 16.9587C12.1609 16.915 12.1495 16.8666 12.1495 16.8175C12.1495 16.7684 12.1609 16.7199 12.1829 16.6762C12.2048 16.6325 12.2366 16.5948 12.2757 16.5662L23.9089 5.83301C24.4388 5.35358 23.7954 5.12159 23.0991 5.55463L8.49889 14.9655C8.45461 14.995 8.40434 15.0138 8.35188 15.0205C8.29942 15.0272 8.24616 15.0216 8.19614 15.0041L1.9973 13.0013C0.61978 12.5915 0.61978 11.6249 2.30762 10.9367L27.1105 1.16239C27.3072 1.06598 27.5208 1.01076 27.7387 1V1Z" stroke="url(#paint0_linear_10_6)" stroke-linecap="round" stroke-linejoin="round"/>
<defs>
<linearGradient id="paint0_linear_10_6" x1="15" y1="1" x2="15" y2="25" gradientUnits="userSpaceOnUse">
<stop stop-color="#FC8FB6"/>
<stop offset="1" stop-color="#9C88E8"/>
</linearGradient>
</defs>
</svg>
