<svg width="91" height="91" viewBox="0 0 91 91" fill="none" xmlns="http://www.w3.org/2000/svg">
<path d="M47.4918 9.60423L60.8722 0.609759C62.992 -0.815274 65.8784 0.380636 66.3702 2.88702L69.4727 18.7077C69.7521 20.1327 70.866 21.2467 72.2911 21.5261L88.1127 24.6286C90.619 25.1194 91.814 28.0067 90.3899 30.1256L81.3964 43.506C80.587 44.7113 80.587 46.2863 81.3964 47.4915L90.3899 60.8719C91.815 62.9917 90.619 65.8781 88.1127 66.3699L72.2911 69.4724C70.866 69.7518 69.753 70.8658 69.4727 72.2908L66.3702 88.1115C65.8784 90.6178 62.992 91.8137 60.8722 90.3887L47.4918 81.3952C46.2866 80.5848 44.7116 80.5848 43.5063 81.3952L30.1259 90.3887C28.0061 91.8137 25.1197 90.6178 24.6279 88.1115L21.5254 72.2908C21.246 70.8658 20.1321 69.7518 18.707 69.4724L2.88545 66.3699C0.379067 65.8791 -0.815912 62.9917 0.60819 60.8719L9.60173 47.4915C10.4111 46.2863 10.4111 44.7113 9.60173 43.506L0.609121 30.1266C-0.815912 28.0067 0.379998 25.1203 2.88638 24.6295L18.708 21.527C20.133 21.2476 21.246 20.1336 21.5264 18.7086L24.6279 2.88702C25.1197 0.380636 28.0061 -0.815274 30.1259 0.609759L43.5063 9.6033C44.7116 10.4136 46.2866 10.4136 47.4918 9.6033" fill="#9C88E8"/>
</svg>
