<svg width="220" height="213" viewBox="0 0 220 213" fill="none" xmlns="http://www.w3.org/2000/svg">
<path d="M110 6.36661L114.947 3.948C133.757 -5.24921 156.473 2.13676 166.28 20.6288L168.862 25.4985L174.286 26.453C194.908 30.0755 208.946 49.3918 206.017 70.118L205.246 75.5734L209.076 79.5321C223.634 94.5752 223.634 118.458 209.076 133.501L205.246 137.459L206.017 142.915C208.946 163.641 194.908 182.957 174.286 186.58L168.862 187.534L166.28 192.404C156.462 210.896 133.757 218.271 114.947 209.085L110 206.666L105.053 209.085C86.2425 218.282 63.5265 210.896 53.7198 192.404L51.1379 187.534L45.7139 186.58C25.0916 182.968 11.0541 163.641 13.9831 142.915L14.7533 137.459L10.9239 133.501C-3.63424 118.458 -3.63424 94.5752 10.9239 79.5321L14.7533 75.5734L13.9831 70.118C11.0541 49.3918 25.0916 30.0755 45.7139 26.453L51.1379 25.4985L53.7198 20.6288C63.5265 2.13676 86.2425 -5.23836 105.053 3.948L110 6.36661Z" fill="#9C88E8"/>
</svg>
