<svg width="309" height="27" viewBox="0 0 309 27" fill="none" xmlns="http://www.w3.org/2000/svg">
<path d="M12.903 0C18.7589 0 23.0821 3.34853 24.3078 8.65192L18.9976 10.2203C18.1811 7.01157 16.2051 5.12661 12.903 5.12661C8.37515 5.12866 5.61673 8.72181 5.61673 13.501C5.61673 18.2802 8.23874 21.8734 12.8007 21.8734C16.171 21.8734 18.4178 20.0234 19.2684 16.7797L24.5445 18.3152C22.9778 23.7214 18.6887 27.0021 12.7646 27.0021C4.96875 27.0021 -0.00244141 21.2464 -0.00244141 13.501C-0.000435278 5.86045 5.27568 0 12.903 0Z" fill="#2DC6CB"/>
<path d="M42.8971 17.3018V0.419312H48.3437V17.164C48.3437 23.1293 44.1911 27.002 38.1646 27.002C32.1382 27.002 28.0197 23.1293 28.0197 17.164V0.419312H33.4663V17.3038C33.4663 20.0603 35.3039 21.8734 38.1646 21.8734C41.0936 21.8734 42.8971 20.0583 42.8971 17.3018Z" fill="#2DC6CB"/>
<path d="M54.1675 0.419312H59.6142V21.454H70.9849V26.5827H54.1655V0.419312H54.1675Z" fill="#2DC6CB"/>
<path d="M80.179 5.54592H72.8927V0.419312H92.9119V5.54798H85.6256V26.5827H80.179V5.54592Z" fill="#2DC6CB"/>
<path d="M111.908 0.419312H117.696L128.862 18.5248V0.419312H133.969V26.5827H128.182L116.981 8.33739V26.5827H111.908V0.419312Z" fill="#9C88E8"/>
<path d="M147.043 0.419312H152.899L162.569 26.5827H156.883L154.432 19.5711H145.274L142.822 26.5827H137.376L147.043 0.419312ZM152.662 14.5123L149.87 6.52437L147.077 14.5123H152.662Z" fill="#9C88E8"/>
<path d="M165.973 0.419312H171.42V26.5827H165.973V0.419312Z" fill="#9C88E8"/>
<path d="M177.414 0.419312H182.861V21.454H194.231V26.5827H177.412V0.419312H177.414Z" fill="#9C88E8"/>
<path d="M218.405 5.54592H211.119V0.419312H231.138V5.54798H223.852V26.5827H218.405V5.54592Z" fill="#FC8FB6"/>
<path d="M235.154 0.419312H252.518V5.40614H240.601V10.5348H248.704V15.5237H240.601V21.5938H252.857V26.5827H235.152V0.419312H235.154Z" fill="#FC8FB6"/>
<path d="M264.263 0.419312H270.119L279.789 26.5827H274.103L271.652 19.5711H262.494L260.042 26.5827H254.596L264.263 0.419312ZM269.883 14.5123L267.09 6.52437L264.297 14.5123H269.883Z" fill="#FC8FB6"/>
<path d="M283.195 0.419312H288.949L296.235 10.2922L303.283 0.419312H309.002V26.5827H303.826V7.6755L296.676 17.5135H295.519L288.403 7.88517V26.5827H283.195V0.419312Z" fill="#FC8FB6"/>
</svg>
