<?xml version="1.0" standalone="no"?>
<!DOCTYPE svg PUBLIC "-//W3C//DTD SVG 20010904//EN"
 "http://www.w3.org/TR/2001/REC-SVG-20010904/DTD/svg10.dtd">
<svg version="1.0" xmlns="http://www.w3.org/2000/svg"
 width="173.000000pt" height="173.000000pt" viewBox="0 0 173.000000 173.000000"
 preserveAspectRatio="xMidYMid meet">
<metadata>
Created by potrace 1.14, written by Peter Selinger 2001-2017
</metadata>
<g transform="translate(0.000000,173.000000) scale(0.100000,-0.100000)"
fill="#000000" stroke="none">
<path d="M405 1336 c-54 -24 -78 -60 -83 -125 -4 -54 -2 -60 27 -94 37 -42 88
-62 137 -52 37 6 104 58 104 80 0 15 -53 28 -58 14 -9 -24 -37 -39 -72 -39
-65 0 -99 67 -69 134 23 51 119 54 134 5 3 -10 13 -16 21 -13 48 15 46 12 30
42 -28 54 -108 76 -171 48z"/>
<path d="M611 1253 c0 -49 5 -103 12 -122 25 -72 129 -91 188 -35 28 27 29 30
29 136 l0 108 -30 0 -30 0 0 -105 c0 -103 0 -105 -25 -111 -14 -3 -36 -3 -50
0 -25 6 -25 8 -25 111 l0 105 -35 0 -35 0 1 -87z"/>
<path d="M890 1205 l0 -135 95 0 c95 0 95 0 95 25 0 24 -2 25 -65 25 l-65 0 0
110 0 110 -30 0 -30 0 0 -135z"/>
<path d="M1090 1315 c0 -22 4 -25 40 -25 l40 0 0 -110 0 -110 30 0 30 0 0 110
0 110 40 0 c36 0 40 3 40 25 l0 25 -110 0 -110 0 0 -25z"/>
<path d="M330 860 l0 -140 30 0 30 0 0 96 0 97 63 -97 c57 -89 64 -96 95 -96
l32 0 0 140 0 140 -25 0 c-24 0 -24 -1 -27 -97 l-3 -98 -64 98 c-59 91 -65 97
-97 97 l-34 0 0 -140z"/>
<path d="M690 868 c-29 -73 -54 -136 -56 -140 -3 -5 10 -8 29 -8 30 0 35 4 43
33 9 31 12 32 66 35 l56 3 12 -36 c10 -29 16 -35 41 -35 16 0 29 3 29 7 0 3
-23 66 -52 140 -52 132 -52 133 -84 133 -32 0 -33 -1 -84 -132z m106 -15 c-2
-3 -15 -3 -29 -1 -25 3 -25 3 -9 42 l16 39 13 -38 c7 -21 11 -40 9 -42z"/>
<path d="M970 861 l0 -141 30 0 31 0 -3 138 -3 137 -27 3 -28 3 0 -140z"/>
<path d="M1107 994 c-4 -4 -7 -67 -7 -141 l0 -133 95 0 c95 0 95 0 95 25 0 24
-3 25 -60 25 l-59 0 -3 113 c-3 112 -3 112 -28 115 -14 2 -29 0 -33 -4z"/>
<path d="M310 625 c0 -23 4 -25 40 -25 l40 0 0 -115 0 -115 30 0 29 0 3 113 3
112 43 3 c38 3 43 6 40 25 -3 21 -8 22 -115 25 l-113 3 0 -26z"/>
<path d="M580 510 l0 -140 100 0 100 0 0 25 c0 24 -2 25 -70 25 l-70 0 0 35
c0 35 0 35 45 35 41 0 45 2 45 25 0 23 -4 25 -45 25 -43 0 -45 1 -45 30 l0 30
70 0 c68 0 70 1 70 25 l0 25 -100 0 -100 0 0 -140z"/>
<path d="M862 517 c-29 -74 -52 -137 -52 -140 0 -4 12 -7 26 -7 21 0 29 8 41
40 16 39 17 40 63 40 51 0 64 -9 75 -53 6 -23 12 -27 41 -27 l33 0 -28 68
c-15 37 -40 100 -55 140 -26 69 -29 72 -60 72 -32 0 -32 -1 -84 -133z m96 -15
c-42 -7 -47 0 -30 42 l16 40 16 -40 c16 -37 16 -39 -2 -42z"/>
<path d="M1130 510 l0 -140 25 0 c25 0 25 0 25 95 0 52 4 95 9 95 6 0 24 -20
42 -45 18 -25 36 -45 40 -45 5 0 27 23 49 51 l40 51 0 -101 0 -101 30 0 30 0
0 140 0 140 -32 0 c-28 0 -38 -8 -68 -50 -19 -27 -39 -49 -45 -49 -5 0 -27 22
-48 50 -30 39 -43 49 -67 49 l-30 0 0 -140z"/>
</g>
</svg>
