<svg xmlns="http://www.w3.org/2000/svg">
    <symbol id="icon-user" viewBox="0 0 22 22">
        <g>
            <path fill-rule="evenodd" clip-rule="evenodd" d="M15 8C15 9.06087 14.5786 10.0783 13.8284 10.8284C13.0783 11.5786 12.0609 12 11 12C9.93913 12 8.92172 11.5786 8.17157 10.8284C7.42143 10.0783 7 9.06087 7 8C7 6.93913 7.42143 5.92172 8.17157 5.17157C8.92172 4.42143 9.93913 4 11 4C12.0609 4 13.0783 4.42143 13.8284 5.17157C14.5786 5.92172 15 6.93913 15 8ZM13 8C13 8.53043 12.7893 9.03914 12.4142 9.41421C12.0391 9.78929 11.5304 10 11 10C10.4696 10 9.96086 9.78929 9.58579 9.41421C9.21071 9.03914 9 8.53043 9 8C9 7.46957 9.21071 6.96086 9.58579 6.58579C9.96086 6.21071 10.4696 6 11 6C11.5304 6 12.0391 6.21071 12.4142 6.58579C12.7893 6.96086 13 7.46957 13 8Z"/>
            <path fill-rule="evenodd" clip-rule="evenodd" d="M11 0C4.925 0 0 4.925 0 11C0 17.075 4.925 22 11 22C17.075 22 22 17.075 22 11C22 4.925 17.075 0 11 0ZM2 11C2 13.09 2.713 15.014 3.908 16.542C4.74723 15.4399 5.8299 14.5467 7.07143 13.9323C8.31297 13.3179 9.67974 12.9988 11.065 13C12.4323 12.9987 13.7819 13.3095 15.0109 13.9088C16.2399 14.508 17.316 15.3799 18.157 16.458C19.0234 15.3216 19.6068 13.9952 19.8589 12.5886C20.111 11.182 20.0244 9.73553 19.6065 8.36898C19.1886 7.00243 18.4512 5.75505 17.4555 4.73004C16.4598 3.70503 15.2343 2.93186 13.8804 2.47451C12.5265 2.01716 11.0832 1.88877 9.66986 2.09997C8.25652 2.31117 6.91379 2.85589 5.75277 3.68905C4.59175 4.52222 3.64581 5.61987 2.99323 6.8912C2.34065 8.16252 2.00018 9.57097 2 11ZM11 20C8.93395 20.0031 6.93027 19.2923 5.328 17.988C5.97293 17.0647 6.83134 16.3109 7.83019 15.7907C8.82905 15.2705 9.93879 14.9992 11.065 15C12.1772 14.9991 13.2735 15.2636 14.2629 15.7714C15.2524 16.2793 16.1064 17.0159 16.754 17.92C15.1393 19.2667 13.1026 20.0029 11 20Z"/>
        </g>
    </symbol>
    <symbol id="icon-heart" viewBox="0 0 24 22">
        <g>
            <path d="M6.5 1C3.4629 1 1 3.4376 1 6.445C1 8.8727 1.9625 14.6345 11.4368 20.459C11.6065 20.5623 11.8013 20.6169 12 20.6169C12.1987 20.6169 12.3935 20.5623 12.5632 20.459C22.0375 14.6345 23 8.8727 23 6.445C23 3.4376 20.5371 1 17.5 1C14.4629 1 12 4.3 12 4.3C12 4.3 9.5371 1 6.5 1Z" stroke="black" stroke-width="2" fill="none" stroke-linecap="round" stroke-linejoin="round"/>
        </g>
    </symbol>
    <symbol id="icon-bascet" viewBox="0 0 24 22">
        <g>
            <path fill="none" d="M6.92313 8.0041L12 1L17.0769 8.0041M2.07891 8.0041C1.79452 8.0038 1.52154 8.11981 1.31946 8.32685C1.11738 8.5339 1.00258 8.81519 1.00006 9.10943C0.998911 9.21142 1.01319 9.31297 1.04237 9.41039L3.7765 19.3858C3.90322 19.8517 4.17404 20.2619 4.5475 20.5534C4.92095 20.8449 5.37646 21.0018 5.84428 21H18.1558C18.6245 21.0004 19.0807 20.8432 19.4555 20.5521C19.8304 20.2609 20.1037 19.8516 20.2341 19.3858L22.9683 9.41039L23 9.10943C22.9975 8.81519 22.8827 8.5339 22.6806 8.32685C22.4785 8.11981 22.2055 8.0038 21.9212 8.0041H2.07891ZM12.3025 16.7631C11.863 16.7608 11.4339 16.6238 11.0695 16.3695C10.7051 16.1152 10.4217 15.7549 10.255 15.334C10.0883 14.9132 10.0458 14.4507 10.1329 14.0049C10.22 13.5591 10.4328 13.15 10.7444 12.8292C11.0559 12.5084 11.4524 12.2903 11.8837 12.2024C12.3149 12.1145 12.7617 12.1607 13.1676 12.3353C13.5735 12.5099 13.9203 12.8049 14.1643 13.1833C14.4083 13.5616 14.5385 14.0062 14.5385 14.461C14.5357 15.0726 14.2989 15.6582 13.8798 16.0897C13.4608 16.5211 12.8937 16.7632 12.3025 16.7631Z" stroke="black" stroke-width="2" stroke-linejoin="round"/>
        </g>
    </symbol>
    <symbol id="icon-search" viewBox="0 0 25 24">
        <g>
            <path d="M23.2518 23L18.0575 17.7964M20.936 10.8421C20.936 13.4524 19.899 15.9558 18.0533 17.8015C16.2075 19.6473 13.7042 20.6842 11.0939 20.6842C8.48359 20.6842 5.98021 19.6473 4.13446 17.8015C2.2887 15.9558 1.25177 13.4524 1.25177 10.8421C1.25177 8.23182 2.2887 5.72844 4.13446 3.88269C5.98021 2.03693 8.48359 1 11.0939 1C13.7042 1 16.2075 2.03693 18.0533 3.88269C19.899 5.72844 20.936 8.23182 20.936 10.8421Z" fill="none" stroke="black" stroke-width="2" stroke-linecap="round"/>
        </g>
    </symbol>


</svg>