<svg width="220" height="220" viewBox="0 0 220 220" fill="none" xmlns="http://www.w3.org/2000/svg">
<g clip-path="url(#clip0_57_31)">
<path d="M217.162 116.855L116.846 217.17C113.06 220.957 106.931 220.957 103.145 217.17L2.83758 116.855C-0.949035 113.068 -0.949035 106.94 2.83758 103.153L103.153 2.83752C106.94 -0.949096 113.068 -0.949096 116.855 2.83752L217.17 103.153C220.957 106.94 220.957 113.068 217.17 116.855" fill="#FC8FB6"/>
<path d="M98.7699 102.592V91.272H92.6299L92.5299 94.212C92.4899 95.1986 92.4233 96.1453 92.3299 97.052C92.2499 97.9586 92.1299 98.7786 91.9699 99.512C91.8099 100.232 91.5833 100.825 91.2899 101.292C91.0099 101.759 90.6499 102.045 90.2099 102.152L88.0499 101.792C88.5699 101.832 88.9966 101.659 89.3299 101.272C89.6766 100.872 89.9433 100.319 90.1299 99.612C90.3299 98.892 90.4766 98.0586 90.5699 97.112C90.6633 96.152 90.7299 95.1253 90.7699 94.032L90.9099 89.532H100.75V102.592H98.7699ZM87.5499 106.592L87.5699 101.792H102.81V106.592H100.95V103.532H89.4299L89.4099 106.592H87.5499ZM103.464 103.512L103.584 101.892C103.677 101.905 103.764 101.919 103.844 101.932C103.924 101.945 103.997 101.952 104.064 101.952C104.491 101.952 104.824 101.805 105.064 101.512C105.317 101.219 105.504 100.832 105.624 100.352C105.744 99.8586 105.831 99.3053 105.884 98.692C105.937 98.0786 105.977 97.4653 106.004 96.852L106.184 92.932H114.324V103.532H112.404V94.052L112.864 94.612H107.424L107.864 94.032L107.724 96.972C107.684 97.9053 107.611 98.7786 107.504 99.592C107.397 100.405 107.231 101.119 107.004 101.732C106.791 102.345 106.491 102.825 106.104 103.172C105.731 103.519 105.244 103.692 104.644 103.692C104.471 103.692 104.284 103.672 104.084 103.632C103.897 103.605 103.691 103.565 103.464 103.512ZM124.817 103.532V99.812L125.117 100.172H121.737C120.323 100.172 119.217 99.872 118.417 99.272C117.63 98.672 117.237 97.7986 117.237 96.652C117.237 95.4253 117.657 94.4986 118.497 93.872C119.35 93.2453 120.483 92.932 121.897 92.932H126.537V103.532H124.817ZM117.137 103.532L120.017 99.472H121.997L119.197 103.532H117.137ZM124.817 99.212V94.072L125.117 94.612H121.957C121.077 94.612 120.397 94.7786 119.917 95.112C119.437 95.432 119.197 95.9653 119.197 96.712C119.197 98.0986 120.09 98.792 121.877 98.792H125.117L124.817 99.212ZM51.3938 127.512L51.5138 125.892C51.6072 125.905 51.6938 125.919 51.7738 125.932C51.8538 125.945 51.9272 125.952 51.9938 125.952C52.4205 125.952 52.7538 125.805 52.9938 125.512C53.2472 125.219 53.4338 124.832 53.5538 124.352C53.6738 123.859 53.7605 123.305 53.8138 122.692C53.8672 122.079 53.9072 121.465 53.9338 120.852L54.1138 116.932H62.2538V127.532H60.3338V118.052L60.7938 118.612H55.3538L55.7938 118.032L55.6538 120.972C55.6138 121.905 55.5405 122.779 55.4338 123.592C55.3272 124.405 55.1605 125.119 54.9338 125.732C54.7205 126.345 54.4205 126.825 54.0338 127.172C53.6605 127.519 53.1738 127.692 52.5738 127.692C52.4005 127.692 52.2138 127.672 52.0138 127.632C51.8272 127.605 51.6205 127.565 51.3938 127.512ZM65.9663 127.532V116.932H67.8863V121.272H71.0863V123.052H67.8863V127.532H65.9663ZM75.3463 127.652C74.3063 127.652 73.3797 127.419 72.5663 126.952C71.7663 126.485 71.133 125.845 70.6663 125.032C70.1997 124.205 69.9663 123.272 69.9663 122.232C69.9663 121.179 70.1997 120.245 70.6663 119.432C71.133 118.605 71.7663 117.965 72.5663 117.512C73.3797 117.059 74.3063 116.832 75.3463 116.832C76.373 116.832 77.293 117.059 78.1063 117.512C78.9197 117.965 79.5597 118.605 80.0263 119.432C80.493 120.245 80.7263 121.179 80.7263 122.232C80.7263 123.285 80.493 124.219 80.0263 125.032C79.5597 125.845 78.9197 126.485 78.1063 126.952C77.293 127.419 76.373 127.652 75.3463 127.652ZM75.3463 125.972C76.013 125.972 76.6063 125.819 77.1263 125.512C77.6463 125.192 78.0597 124.759 78.3663 124.212C78.673 123.652 78.8263 122.992 78.8263 122.232C78.8263 121.472 78.673 120.819 78.3663 120.272C78.0597 119.712 77.6463 119.279 77.1263 118.972C76.6063 118.665 76.013 118.512 75.3463 118.512C74.693 118.512 74.0997 118.665 73.5663 118.972C73.0463 119.279 72.633 119.712 72.3263 120.272C72.0197 120.819 71.8663 121.472 71.8663 122.232C71.8663 122.992 72.0197 123.652 72.3263 124.212C72.633 124.759 73.0463 125.192 73.5663 125.512C74.0997 125.819 74.693 125.972 75.3463 125.972ZM88.3859 127.692C87.5059 127.692 86.7259 127.552 86.0459 127.272C85.3792 126.992 84.8059 126.579 84.3259 126.032C83.8459 125.472 83.4792 124.772 83.2259 123.932C82.9859 123.079 82.8659 122.079 82.8659 120.932C82.8659 120.025 82.9459 119.212 83.1059 118.492C83.2659 117.772 83.4925 117.132 83.7859 116.572C84.0925 116.012 84.4659 115.525 84.9059 115.112C85.3592 114.699 85.8659 114.359 86.4259 114.092C86.9992 113.812 87.6259 113.599 88.3059 113.452L93.1459 112.372L93.4259 114.152L88.9659 115.112C88.6992 115.165 88.3792 115.245 88.0059 115.352C87.6325 115.459 87.2525 115.625 86.8659 115.852C86.4792 116.065 86.1192 116.365 85.7859 116.752C85.4525 117.139 85.1859 117.645 84.9859 118.272C84.7859 118.885 84.6859 119.645 84.6859 120.552C84.6859 120.805 84.6925 120.999 84.7059 121.132C84.7192 121.265 84.7325 121.399 84.7459 121.532C84.7725 121.665 84.7925 121.865 84.8059 122.132L84.0059 121.312C84.2192 120.579 84.5592 119.939 85.0259 119.392C85.4925 118.845 86.0525 118.425 86.7059 118.132C87.3725 117.825 88.0992 117.672 88.8859 117.672C89.8725 117.672 90.7459 117.885 91.5059 118.312C92.2792 118.739 92.8859 119.325 93.3259 120.072C93.7659 120.819 93.9859 121.672 93.9859 122.632C93.9859 123.605 93.7525 124.479 93.2859 125.252C92.8325 126.012 92.1859 126.612 91.3459 127.052C90.5059 127.479 89.5192 127.692 88.3859 127.692ZM88.5659 126.092C89.2459 126.092 89.8459 125.945 90.3659 125.652C90.8859 125.345 91.2925 124.939 91.5859 124.432C91.8792 123.912 92.0259 123.332 92.0259 122.692C92.0259 122.052 91.8792 121.485 91.5859 120.992C91.2925 120.499 90.8859 120.112 90.3659 119.832C89.8459 119.539 89.2325 119.392 88.5259 119.392C87.8592 119.392 87.2592 119.532 86.7259 119.812C86.1925 120.079 85.7792 120.459 85.4859 120.952C85.1925 121.432 85.0459 121.992 85.0459 122.632C85.0459 123.272 85.1925 123.859 85.4859 124.392C85.7925 124.912 86.2059 125.325 86.7259 125.632C87.2592 125.939 87.8725 126.092 88.5659 126.092ZM96.7281 127.532V116.932H98.6481V124.652L105.148 116.932H106.888V127.532H104.968V119.812L98.4881 127.532H96.7281ZM112.715 127.532V118.112L113.195 118.612H108.835V116.932H118.515V118.612H114.175L114.635 118.112V127.532H112.715ZM124.729 127.652C123.596 127.652 122.596 127.419 121.729 126.952C120.876 126.485 120.209 125.845 119.729 125.032C119.263 124.219 119.029 123.285 119.029 122.232C119.029 121.179 119.256 120.245 119.709 119.432C120.176 118.619 120.809 117.985 121.609 117.532C122.423 117.065 123.336 116.832 124.349 116.832C125.376 116.832 126.283 117.059 127.069 117.512C127.856 117.965 128.469 118.605 128.909 119.432C129.363 120.245 129.589 121.199 129.589 122.292C129.589 122.372 129.583 122.465 129.569 122.572C129.569 122.679 129.563 122.779 129.549 122.872H120.529V121.492H128.549L127.769 121.972C127.783 121.292 127.643 120.685 127.349 120.152C127.056 119.619 126.649 119.205 126.129 118.912C125.623 118.605 125.029 118.452 124.349 118.452C123.683 118.452 123.089 118.605 122.569 118.912C122.049 119.205 121.643 119.625 121.349 120.172C121.056 120.705 120.909 121.319 120.909 122.012V122.332C120.909 123.039 121.069 123.672 121.389 124.232C121.723 124.779 122.183 125.205 122.769 125.512C123.356 125.819 124.029 125.972 124.789 125.972C125.416 125.972 125.983 125.865 126.489 125.652C127.009 125.439 127.463 125.119 127.849 124.692L128.909 125.932C128.429 126.492 127.829 126.919 127.109 127.212C126.403 127.505 125.609 127.652 124.729 127.652ZM130.632 127.512L130.752 125.892C130.845 125.905 130.932 125.919 131.012 125.932C131.092 125.945 131.165 125.952 131.232 125.952C131.659 125.952 131.992 125.805 132.232 125.512C132.485 125.219 132.672 124.832 132.792 124.352C132.912 123.859 132.999 123.305 133.052 122.692C133.105 122.079 133.145 121.465 133.172 120.852L133.352 116.932H141.492V127.532H139.572V118.052L140.032 118.612H134.592L135.032 118.032L134.892 120.972C134.852 121.905 134.779 122.779 134.672 123.592C134.565 124.405 134.399 125.119 134.172 125.732C133.959 126.345 133.659 126.825 133.272 127.172C132.899 127.519 132.412 127.692 131.812 127.692C131.639 127.692 131.452 127.672 131.252 127.632C131.065 127.605 130.859 127.565 130.632 127.512ZM149.925 127.652C148.791 127.652 147.791 127.419 146.925 126.952C146.071 126.485 145.405 125.845 144.925 125.032C144.458 124.219 144.225 123.285 144.225 122.232C144.225 121.179 144.451 120.245 144.905 119.432C145.371 118.619 146.005 117.985 146.805 117.532C147.618 117.065 148.531 116.832 149.545 116.832C150.571 116.832 151.478 117.059 152.265 117.512C153.051 117.965 153.665 118.605 154.105 119.432C154.558 120.245 154.785 121.199 154.785 122.292C154.785 122.372 154.778 122.465 154.765 122.572C154.765 122.679 154.758 122.779 154.745 122.872H145.725V121.492H153.745L152.965 121.972C152.978 121.292 152.838 120.685 152.545 120.152C152.251 119.619 151.845 119.205 151.325 118.912C150.818 118.605 150.225 118.452 149.545 118.452C148.878 118.452 148.285 118.605 147.765 118.912C147.245 119.205 146.838 119.625 146.545 120.172C146.251 120.705 146.105 121.319 146.105 122.012V122.332C146.105 123.039 146.265 123.672 146.585 124.232C146.918 124.779 147.378 125.205 147.965 125.512C148.551 125.819 149.225 125.972 149.985 125.972C150.611 125.972 151.178 125.865 151.685 125.652C152.205 125.439 152.658 125.119 153.045 124.692L154.105 125.932C153.625 126.492 153.025 126.919 152.305 127.212C151.598 127.505 150.805 127.652 149.925 127.652ZM157.763 127.532V116.932H159.683V124.652L166.183 116.932H167.923V127.532H166.003V119.812L159.523 127.532H157.763ZM162.723 115.552C161.75 115.552 160.983 115.319 160.423 114.852C159.877 114.372 159.597 113.685 159.583 112.792H160.883C160.897 113.299 161.063 113.699 161.383 113.992C161.717 114.285 162.157 114.432 162.703 114.432C163.25 114.432 163.69 114.285 164.023 113.992C164.357 113.699 164.53 113.299 164.543 112.792H165.883C165.87 113.685 165.583 114.372 165.023 114.852C164.463 115.319 163.697 115.552 162.723 115.552Z" fill="white"/>
</g>
<defs>
<clipPath id="clip0_57_31">
<rect width="220" height="220" fill="white"/>
</clipPath>
</defs>
</svg>
