<svg width="220" height="213" viewBox="0 0 220 213" fill="none" xmlns="http://www.w3.org/2000/svg">
<g clip-path="url(#clip0_57_33)">
<path d="M110 6.36661L114.947 3.948C133.757 -5.24921 156.473 2.13676 166.28 20.6288L168.862 25.4985L174.286 26.453C194.908 30.0755 208.946 49.3918 206.017 70.118L205.246 75.5734L209.076 79.5321C223.634 94.5752 223.634 118.458 209.076 133.501L205.246 137.459L206.017 142.915C208.946 163.641 194.908 182.957 174.286 186.58L168.862 187.534L166.28 192.404C156.462 210.896 133.757 218.271 114.947 209.085L110 206.666L105.053 209.085C86.2425 218.282 63.5265 210.896 53.7198 192.404L51.1379 187.534L45.7139 186.58C25.0916 182.968 11.0541 163.641 13.9831 142.915L14.7533 137.459L10.9239 133.501C-3.63424 118.458 -3.63424 94.5752 10.9239 79.5321L14.7533 75.5734L13.9831 70.118C11.0541 49.3918 25.0916 30.0755 45.7139 26.453L51.1379 25.4985L53.7198 20.6288C63.5265 2.13676 86.2425 -5.23836 105.053 3.948L110 6.36661Z" fill="#9C88E8"/>
<path d="M101.027 73.06V61.74H94.8869L94.7869 64.68C94.7469 65.6667 94.6802 66.6133 94.5869 67.52C94.5069 68.4267 94.3869 69.2467 94.2269 69.98C94.0669 70.7 93.8402 71.2933 93.5469 71.76C93.2669 72.2267 92.9069 72.5133 92.4669 72.62L90.3069 72.26C90.8269 72.3 91.2536 72.1267 91.5869 71.74C91.9336 71.34 92.2002 70.7867 92.3869 70.08C92.5869 69.36 92.7336 68.5267 92.8269 67.58C92.9202 66.62 92.9869 65.5933 93.0269 64.5L93.1669 60H103.007V73.06H101.027ZM89.8069 77.06L89.8269 72.26H105.067V77.06H103.207V74H91.6869L91.6669 77.06H89.8069ZM105.721 73.98L105.841 72.36C105.934 72.3733 106.021 72.3867 106.101 72.4C106.181 72.4133 106.254 72.42 106.321 72.42C106.748 72.42 107.081 72.2733 107.321 71.98C107.574 71.6867 107.761 71.3 107.881 70.82C108.001 70.3267 108.088 69.7733 108.141 69.16C108.194 68.5467 108.234 67.9333 108.261 67.32L108.441 63.4H116.581V74H114.661V64.52L115.121 65.08H109.681L110.121 64.5L109.981 67.44C109.941 68.3733 109.868 69.2467 109.761 70.06C109.654 70.8733 109.488 71.5867 109.261 72.2C109.048 72.8133 108.748 73.2933 108.361 73.64C107.988 73.9867 107.501 74.16 106.901 74.16C106.728 74.16 106.541 74.14 106.341 74.1C106.154 74.0733 105.948 74.0333 105.721 73.98ZM127.074 74V70.28L127.374 70.64H123.994C122.58 70.64 121.474 70.34 120.674 69.74C119.887 69.14 119.494 68.2667 119.494 67.12C119.494 65.8933 119.914 64.9667 120.754 64.34C121.607 63.7133 122.74 63.4 124.154 63.4H128.794V74H127.074ZM119.394 74L122.274 69.94H124.254L121.454 74H119.394ZM127.074 69.68V64.54L127.374 65.08H124.214C123.334 65.08 122.654 65.2467 122.174 65.58C121.694 65.9 121.454 66.4333 121.454 67.18C121.454 68.5667 122.347 69.26 124.134 69.26H127.374L127.074 69.68ZM47.9995 98.12C46.9195 98.12 45.9529 97.8867 45.0995 97.42C44.2595 96.9533 43.5995 96.3133 43.1195 95.5C42.6395 94.6867 42.3995 93.7533 42.3995 92.7C42.3995 91.6467 42.6395 90.7133 43.1195 89.9C43.5995 89.0867 44.2595 88.4533 45.0995 88C45.9529 87.5333 46.9195 87.3 47.9995 87.3C48.9595 87.3 49.8129 87.4933 50.5595 87.88C51.3195 88.2533 51.9062 88.8133 52.3195 89.56L50.8595 90.5C50.5129 89.98 50.0862 89.6 49.5795 89.36C49.0862 89.1067 48.5529 88.98 47.9795 88.98C47.2862 88.98 46.6662 89.1333 46.1195 89.44C45.5729 89.7467 45.1395 90.18 44.8195 90.74C44.4995 91.2867 44.3395 91.94 44.3395 92.7C44.3395 93.46 44.4995 94.12 44.8195 94.68C45.1395 95.24 45.5729 95.6733 46.1195 95.98C46.6662 96.2867 47.2862 96.44 47.9795 96.44C48.5529 96.44 49.0862 96.32 49.5795 96.08C50.0862 95.8267 50.5129 95.44 50.8595 94.92L52.3195 95.84C51.9062 96.5733 51.3195 97.14 50.5595 97.54C49.8129 97.9267 48.9595 98.12 47.9995 98.12ZM61.3053 98V95.76L61.2053 95.34V91.52C61.2053 90.7067 60.9653 90.08 60.4853 89.64C60.0187 89.1867 59.312 88.96 58.3653 88.96C57.7387 88.96 57.1253 89.0667 56.5253 89.28C55.9253 89.48 55.4187 89.7533 55.0053 90.1L54.2053 88.66C54.752 88.22 55.4053 87.8867 56.1653 87.66C56.9387 87.42 57.7453 87.3 58.5853 87.3C60.0387 87.3 61.1587 87.6533 61.9453 88.36C62.732 89.0667 63.1253 90.1467 63.1253 91.6V98H61.3053ZM57.8253 98.12C57.0387 98.12 56.3453 97.9867 55.7453 97.72C55.1587 97.4533 54.7053 97.0867 54.3853 96.62C54.0653 96.14 53.9053 95.6 53.9053 95C53.9053 94.4267 54.0387 93.9067 54.3053 93.44C54.5853 92.9733 55.032 92.6 55.6453 92.32C56.272 92.04 57.112 91.9 58.1653 91.9H61.5253V93.28H58.2453C57.2853 93.28 56.6387 93.44 56.3053 93.76C55.972 94.08 55.8053 94.4667 55.8053 94.92C55.8053 95.44 56.012 95.86 56.4253 96.18C56.8387 96.4867 57.412 96.64 58.1453 96.64C58.8653 96.64 59.492 96.48 60.0253 96.16C60.572 95.84 60.9653 95.3733 61.2053 94.76L61.5853 96.08C61.332 96.7067 60.8853 97.2067 60.2453 97.58C59.6053 97.94 58.7987 98.12 57.8253 98.12ZM66.5827 98V87.4H68.5627L73.1227 95.24H72.3227L77.0027 87.4H78.8027V98H77.0627V89.56L77.3827 89.74L73.1027 96.8H72.2627L67.9627 89.6L68.3427 89.52V98H66.5827ZM87.0797 98.12C86.013 98.12 85.0664 97.8867 84.2397 97.42C83.413 96.9533 82.7597 96.3133 82.2797 95.5C81.7997 94.6733 81.5597 93.74 81.5597 92.7C81.5597 91.6467 81.7997 90.7133 82.2797 89.9C82.7597 89.0867 83.413 88.4533 84.2397 88C85.0664 87.5333 86.013 87.3 87.0797 87.3C88.133 87.3 89.073 87.5333 89.8997 88C90.7397 88.4533 91.393 89.0867 91.8597 89.9C92.3397 90.7 92.5797 91.6333 92.5797 92.7C92.5797 93.7533 92.3397 94.6867 91.8597 95.5C91.393 96.3133 90.7397 96.9533 89.8997 97.42C89.073 97.8867 88.133 98.12 87.0797 98.12ZM87.0797 96.44C87.7597 96.44 88.3664 96.2867 88.8997 95.98C89.4464 95.6733 89.873 95.24 90.1797 94.68C90.4864 94.1067 90.6397 93.4467 90.6397 92.7C90.6397 91.94 90.4864 91.2867 90.1797 90.74C89.873 90.18 89.4464 89.7467 88.8997 89.44C88.3664 89.1333 87.7597 88.98 87.0797 88.98C86.3997 88.98 85.793 89.1333 85.2597 89.44C84.7264 89.7467 84.2997 90.18 83.9797 90.74C83.6597 91.2867 83.4997 91.94 83.4997 92.7C83.4997 93.4467 83.6597 94.1067 83.9797 94.68C84.2997 95.24 84.7264 95.6733 85.2597 95.98C85.793 96.2867 86.3997 96.44 87.0797 96.44ZM98.335 98.14C99.2683 98.14 100.095 98.0067 100.815 97.74C101.548 97.46 102.128 97.08 102.555 96.6C102.982 96.1067 103.195 95.54 103.195 94.9C103.195 94.1 102.855 93.4667 102.175 93C101.495 92.5333 100.562 92.3 99.375 92.3L99.295 92.76C99.9883 92.76 100.602 92.6467 101.135 92.42C101.668 92.1933 102.095 91.8867 102.415 91.5C102.735 91.1 102.895 90.6467 102.895 90.14C102.895 89.54 102.682 89.02 102.255 88.58C101.842 88.14 101.275 87.8067 100.555 87.58C99.835 87.34 99.015 87.2333 98.095 87.26C97.4817 87.2733 96.8617 87.3667 96.235 87.54C95.6217 87.7 94.995 87.9333 94.355 88.24L94.875 89.74C95.4483 89.46 96.0083 89.2533 96.555 89.12C97.115 88.9867 97.6617 88.9133 98.195 88.9C98.7417 88.9 99.215 88.96 99.615 89.08C100.028 89.2 100.348 89.3733 100.575 89.6C100.802 89.8267 100.915 90.1 100.915 90.42C100.915 90.7133 100.815 90.9733 100.615 91.2C100.428 91.4133 100.162 91.5733 99.815 91.68C99.4683 91.7867 99.0617 91.84 98.595 91.84H96.795V93.22H98.715C99.5017 93.22 100.115 93.3533 100.555 93.62C100.995 93.8867 101.215 94.2667 101.215 94.76C101.215 95.1067 101.095 95.4133 100.855 95.68C100.615 95.9333 100.268 96.1333 99.815 96.28C99.375 96.4267 98.8483 96.5 98.235 96.5C97.5683 96.5 96.9083 96.4133 96.255 96.24C95.6017 96.0533 95.0217 95.8 94.515 95.48L93.935 96.94C94.535 97.3267 95.215 97.6267 95.975 97.84C96.7483 98.04 97.535 98.14 98.335 98.14ZM112.614 98V95.76L112.514 95.34V91.52C112.514 90.7067 112.274 90.08 111.794 89.64C111.327 89.1867 110.621 88.96 109.674 88.96C109.047 88.96 108.434 89.0667 107.834 89.28C107.234 89.48 106.727 89.7533 106.314 90.1L105.514 88.66C106.061 88.22 106.714 87.8867 107.474 87.66C108.247 87.42 109.054 87.3 109.894 87.3C111.347 87.3 112.467 87.6533 113.254 88.36C114.041 89.0667 114.434 90.1467 114.434 91.6V98H112.614ZM109.134 98.12C108.347 98.12 107.654 97.9867 107.054 97.72C106.467 97.4533 106.014 97.0867 105.694 96.62C105.374 96.14 105.214 95.6 105.214 95C105.214 94.4267 105.347 93.9067 105.614 93.44C105.894 92.9733 106.341 92.6 106.954 92.32C107.581 92.04 108.421 91.9 109.474 91.9H112.834V93.28H109.554C108.594 93.28 107.947 93.44 107.614 93.76C107.281 94.08 107.114 94.4667 107.114 94.92C107.114 95.44 107.321 95.86 107.734 96.18C108.147 96.4867 108.721 96.64 109.454 96.64C110.174 96.64 110.801 96.48 111.334 96.16C111.881 95.84 112.274 95.3733 112.514 94.76L112.894 96.08C112.641 96.7067 112.194 97.2067 111.554 97.58C110.914 97.94 110.107 98.12 109.134 98.12ZM117.891 98V87.4H119.811V91.9H125.851V87.4H127.771V98H125.851V93.56H119.811V98H117.891ZM138.285 98V94.28L138.585 94.64H135.205C133.791 94.64 132.685 94.34 131.885 93.74C131.098 93.14 130.705 92.2667 130.705 91.12C130.705 89.8933 131.125 88.9667 131.965 88.34C132.818 87.7133 133.951 87.4 135.365 87.4H140.005V98H138.285ZM130.605 98L133.485 93.94H135.465L132.665 98H130.605ZM138.285 93.68V88.54L138.585 89.08H135.425C134.545 89.08 133.865 89.2467 133.385 89.58C132.905 89.9 132.665 90.4333 132.665 91.18C132.665 92.5667 133.558 93.26 135.345 93.26H138.585L138.285 93.68ZM145.851 98V88.58L146.331 89.08H141.971V87.4H151.651V89.08H147.311L147.771 88.58V98H145.851ZM164.094 98V87.4H166.014V98H164.094ZM158.394 91C159.741 91.0133 160.761 91.32 161.454 91.92C162.161 92.52 162.514 93.3667 162.514 94.46C162.514 95.6067 162.127 96.4933 161.354 97.12C160.594 97.7333 159.501 98.0333 158.074 98.02L153.614 98V87.4H155.534V90.98L158.394 91ZM157.934 96.56C158.787 96.5733 159.441 96.4 159.894 96.04C160.347 95.68 160.574 95.1467 160.574 94.44C160.574 93.7467 160.347 93.24 159.894 92.92C159.454 92.6 158.801 92.4333 157.934 92.42L155.534 92.38V96.54L157.934 96.56ZM168.067 98L172.627 92.08L172.607 93.06L168.267 87.4H170.407L173.727 91.76H172.907L176.227 87.4H178.327L173.927 93.1L173.947 92.08L178.547 98H176.367L172.867 93.36L173.647 93.48L170.207 98H168.067ZM62.0514 122V111.4H64.0314L68.5914 119.24H67.7914L72.4714 111.4H74.2714V122H72.5314V113.56L72.8514 113.74L68.5714 120.8H67.7314L63.4314 113.6L63.8114 113.52V122H62.0514ZM84.5085 122V119.76L84.4085 119.34V115.52C84.4085 114.707 84.1685 114.08 83.6885 113.64C83.2218 113.187 82.5151 112.96 81.5685 112.96C80.9418 112.96 80.3285 113.067 79.7285 113.28C79.1285 113.48 78.6218 113.753 78.2085 114.1L77.4085 112.66C77.9551 112.22 78.6085 111.887 79.3685 111.66C80.1418 111.42 80.9485 111.3 81.7885 111.3C83.2418 111.3 84.3618 111.653 85.1485 112.36C85.9351 113.067 86.3285 114.147 86.3285 115.6V122H84.5085ZM81.0285 122.12C80.2418 122.12 79.5485 121.987 78.9485 121.72C78.3618 121.453 77.9085 121.087 77.5885 120.62C77.2685 120.14 77.1085 119.6 77.1085 119C77.1085 118.427 77.2418 117.907 77.5085 117.44C77.7885 116.973 78.2351 116.6 78.8485 116.32C79.4751 116.04 80.3151 115.9 81.3685 115.9H84.7285V117.28H81.4485C80.4885 117.28 79.8418 117.44 79.5085 117.76C79.1751 118.08 79.0085 118.467 79.0085 118.92C79.0085 119.44 79.2151 119.86 79.6285 120.18C80.0418 120.487 80.6151 120.64 81.3485 120.64C82.0685 120.64 82.6951 120.48 83.2285 120.16C83.7751 119.84 84.1685 119.373 84.4085 118.76L84.7885 120.08C84.5351 120.707 84.0885 121.207 83.4485 121.58C82.8085 121.94 82.0018 122.12 81.0285 122.12ZM94.4058 122.12C93.3258 122.12 92.3591 121.887 91.5058 121.42C90.6658 120.953 90.0058 120.313 89.5258 119.5C89.0458 118.687 88.8058 117.753 88.8058 116.7C88.8058 115.647 89.0458 114.713 89.5258 113.9C90.0058 113.087 90.6658 112.453 91.5058 112C92.3591 111.533 93.3258 111.3 94.4058 111.3C95.3658 111.3 96.2191 111.493 96.9658 111.88C97.7258 112.253 98.3125 112.813 98.7258 113.56L97.2658 114.5C96.9191 113.98 96.4925 113.6 95.9858 113.36C95.4925 113.107 94.9591 112.98 94.3858 112.98C93.6925 112.98 93.0725 113.133 92.5258 113.44C91.9791 113.747 91.5458 114.18 91.2258 114.74C90.9058 115.287 90.7458 115.94 90.7458 116.7C90.7458 117.46 90.9058 118.12 91.2258 118.68C91.5458 119.24 91.9791 119.673 92.5258 119.98C93.0725 120.287 93.6925 120.44 94.3858 120.44C94.9591 120.44 95.4925 120.32 95.9858 120.08C96.4925 119.827 96.9191 119.44 97.2658 118.92L98.7258 119.84C98.3125 120.573 97.7258 121.14 96.9658 121.54C96.2191 121.927 95.3658 122.12 94.4058 122.12ZM103.175 122V112.58L103.655 113.08H99.2949V111.4H108.975V113.08H104.635L105.095 112.58V122H103.175ZM115.189 122.12C114.056 122.12 113.056 121.887 112.189 121.42C111.336 120.953 110.669 120.313 110.189 119.5C109.723 118.687 109.489 117.753 109.489 116.7C109.489 115.647 109.716 114.713 110.169 113.9C110.636 113.087 111.269 112.453 112.069 112C112.883 111.533 113.796 111.3 114.809 111.3C115.836 111.3 116.743 111.527 117.529 111.98C118.316 112.433 118.929 113.073 119.369 113.9C119.823 114.713 120.049 115.667 120.049 116.76C120.049 116.84 120.043 116.933 120.029 117.04C120.029 117.147 120.023 117.247 120.009 117.34H110.989V115.96H119.009L118.229 116.44C118.243 115.76 118.103 115.153 117.809 114.62C117.516 114.087 117.109 113.673 116.589 113.38C116.083 113.073 115.489 112.92 114.809 112.92C114.143 112.92 113.549 113.073 113.029 113.38C112.509 113.673 112.103 114.093 111.809 114.64C111.516 115.173 111.369 115.787 111.369 116.48V116.8C111.369 117.507 111.529 118.14 111.849 118.7C112.183 119.247 112.643 119.673 113.229 119.98C113.816 120.287 114.489 120.44 115.249 120.44C115.876 120.44 116.443 120.333 116.949 120.12C117.469 119.907 117.923 119.587 118.309 119.16L119.369 120.4C118.889 120.96 118.289 121.387 117.569 121.68C116.863 121.973 116.069 122.12 115.189 122.12ZM128.648 122.12C127.768 122.12 126.961 121.92 126.228 121.52C125.508 121.107 124.928 120.5 124.488 119.7C124.061 118.9 123.848 117.9 123.848 116.7C123.848 115.5 124.055 114.5 124.468 113.7C124.895 112.9 125.468 112.3 126.188 111.9C126.921 111.5 127.741 111.3 128.648 111.3C129.688 111.3 130.608 111.527 131.408 111.98C132.208 112.433 132.841 113.067 133.308 113.88C133.775 114.68 134.008 115.62 134.008 116.7C134.008 117.78 133.775 118.727 133.308 119.54C132.841 120.353 132.208 120.987 131.408 121.44C130.608 121.893 129.688 122.12 128.648 122.12ZM123.028 125.88V111.4H124.868V114.26L124.748 116.72L124.948 119.18V125.88H123.028ZM128.488 120.44C129.168 120.44 129.775 120.287 130.308 119.98C130.855 119.673 131.281 119.24 131.588 118.68C131.908 118.107 132.068 117.447 132.068 116.7C132.068 115.94 131.908 115.287 131.588 114.74C131.281 114.18 130.855 113.747 130.308 113.44C129.775 113.133 129.168 112.98 128.488 112.98C127.821 112.98 127.215 113.133 126.668 113.44C126.135 113.747 125.708 114.18 125.388 114.74C125.081 115.287 124.928 115.94 124.928 116.7C124.928 117.447 125.081 118.107 125.388 118.68C125.708 119.24 126.135 119.673 126.668 119.98C127.215 120.287 127.821 120.44 128.488 120.44ZM141.338 122.12C140.271 122.12 139.324 121.887 138.498 121.42C137.671 120.953 137.018 120.313 136.538 119.5C136.058 118.673 135.818 117.74 135.818 116.7C135.818 115.647 136.058 114.713 136.538 113.9C137.018 113.087 137.671 112.453 138.498 112C139.324 111.533 140.271 111.3 141.338 111.3C142.391 111.3 143.331 111.533 144.158 112C144.998 112.453 145.651 113.087 146.118 113.9C146.598 114.7 146.838 115.633 146.838 116.7C146.838 117.753 146.598 118.687 146.118 119.5C145.651 120.313 144.998 120.953 144.158 121.42C143.331 121.887 142.391 122.12 141.338 122.12ZM141.338 120.44C142.018 120.44 142.624 120.287 143.158 119.98C143.704 119.673 144.131 119.24 144.438 118.68C144.744 118.107 144.898 117.447 144.898 116.7C144.898 115.94 144.744 115.287 144.438 114.74C144.131 114.18 143.704 113.747 143.158 113.44C142.624 113.133 142.018 112.98 141.338 112.98C140.658 112.98 140.051 113.133 139.518 113.44C138.984 113.747 138.558 114.18 138.238 114.74C137.918 115.287 137.758 115.94 137.758 116.7C137.758 117.447 137.918 118.107 138.238 118.68C138.558 119.24 138.984 119.673 139.518 119.98C140.051 120.287 140.658 120.44 141.338 120.44ZM149.61 122V111.4H154.53C155.77 111.4 156.743 111.64 157.45 112.12C158.17 112.587 158.53 113.253 158.53 114.12C158.53 114.987 158.19 115.66 157.51 116.14C156.843 116.607 155.957 116.84 154.85 116.84L155.15 116.32C156.417 116.32 157.357 116.553 157.97 117.02C158.583 117.487 158.89 118.173 158.89 119.08C158.89 120 158.543 120.72 157.85 121.24C157.17 121.747 156.123 122 154.71 122H149.61ZM151.49 120.52H154.57C155.37 120.52 155.97 120.4 156.37 120.16C156.77 119.907 156.97 119.507 156.97 118.96C156.97 118.4 156.783 117.993 156.41 117.74C156.05 117.473 155.477 117.34 154.69 117.34H151.49V120.52ZM151.49 115.96H154.37C155.103 115.96 155.657 115.827 156.03 115.56C156.417 115.28 156.61 114.893 156.61 114.4C156.61 113.893 156.417 113.513 156.03 113.26C155.657 113.007 155.103 112.88 154.37 112.88H151.49V115.96ZM56.8952 146V135.4H58.8752L63.4352 143.24H62.6352L67.3152 135.4H69.1152V146H67.3752V137.56L67.6952 137.74L63.4152 144.8H62.5752L58.2752 137.6L58.6552 137.52V146H56.8952ZM79.3522 146V143.76L79.2522 143.34V139.52C79.2522 138.707 79.0122 138.08 78.5322 137.64C78.0655 137.187 77.3589 136.96 76.4122 136.96C75.7855 136.96 75.1722 137.067 74.5722 137.28C73.9722 137.48 73.4655 137.753 73.0522 138.1L72.2522 136.66C72.7989 136.22 73.4522 135.887 74.2122 135.66C74.9855 135.42 75.7922 135.3 76.6322 135.3C78.0855 135.3 79.2055 135.653 79.9922 136.36C80.7789 137.067 81.1722 138.147 81.1722 139.6V146H79.3522ZM75.8722 146.12C75.0855 146.12 74.3922 145.987 73.7922 145.72C73.2055 145.453 72.7522 145.087 72.4322 144.62C72.1122 144.14 71.9522 143.6 71.9522 143C71.9522 142.427 72.0855 141.907 72.3522 141.44C72.6322 140.973 73.0789 140.6 73.6922 140.32C74.3189 140.04 75.1589 139.9 76.2122 139.9H79.5722V141.28H76.2922C75.3322 141.28 74.6855 141.44 74.3522 141.76C74.0189 142.08 73.8522 142.467 73.8522 142.92C73.8522 143.44 74.0589 143.86 74.4722 144.18C74.8855 144.487 75.4589 144.64 76.1922 144.64C76.9122 144.64 77.5389 144.48 78.0722 144.16C78.6189 143.84 79.0122 143.373 79.2522 142.76L79.6322 144.08C79.3789 144.707 78.9322 145.207 78.2922 145.58C77.6522 145.94 76.8455 146.12 75.8722 146.12ZM84.6295 146V135.4H86.5495V139.9H92.5895V135.4H94.5095V146H92.5895V141.56H86.5495V146H84.6295ZM98.2428 146V135.4H100.163V143.12L106.663 135.4H108.403V146H106.483V138.28L100.003 146H98.2428ZM119.81 146L115.71 140.84L117.29 139.88L122.07 146H119.81ZM112.13 146V135.4H114.05V146H112.13ZM113.47 141.52V139.88H116.97V141.52H113.47ZM117.45 140.92L115.67 140.68L119.73 135.4H121.79L117.45 140.92ZM124.083 146V135.4H126.003V139.74H129.203V141.52H126.003V146H124.083ZM133.463 146.12C132.423 146.12 131.496 145.887 130.683 145.42C129.883 144.953 129.249 144.313 128.783 143.5C128.316 142.673 128.083 141.74 128.083 140.7C128.083 139.647 128.316 138.713 128.783 137.9C129.249 137.073 129.883 136.433 130.683 135.98C131.496 135.527 132.423 135.3 133.463 135.3C134.489 135.3 135.409 135.527 136.223 135.98C137.036 136.433 137.676 137.073 138.143 137.9C138.609 138.713 138.843 139.647 138.843 140.7C138.843 141.753 138.609 142.687 138.143 143.5C137.676 144.313 137.036 144.953 136.223 145.42C135.409 145.887 134.489 146.12 133.463 146.12ZM133.463 144.44C134.129 144.44 134.723 144.287 135.243 143.98C135.763 143.66 136.176 143.227 136.483 142.68C136.789 142.12 136.943 141.46 136.943 140.7C136.943 139.94 136.789 139.287 136.483 138.74C136.176 138.18 135.763 137.747 135.243 137.44C134.723 137.133 134.129 136.98 133.463 136.98C132.809 136.98 132.216 137.133 131.683 137.44C131.163 137.747 130.749 138.18 130.443 138.74C130.136 139.287 129.983 139.94 129.983 140.7C129.983 141.46 130.136 142.12 130.443 142.68C130.749 143.227 131.163 143.66 131.683 143.98C132.216 144.287 132.809 144.44 133.463 144.44ZM147.222 146.12C146.342 146.12 145.536 145.92 144.802 145.52C144.082 145.107 143.502 144.5 143.062 143.7C142.636 142.9 142.422 141.9 142.422 140.7C142.422 139.5 142.629 138.5 143.042 137.7C143.469 136.9 144.042 136.3 144.762 135.9C145.496 135.5 146.316 135.3 147.222 135.3C148.262 135.3 149.182 135.527 149.982 135.98C150.782 136.433 151.416 137.067 151.882 137.88C152.349 138.68 152.582 139.62 152.582 140.7C152.582 141.78 152.349 142.727 151.882 143.54C151.416 144.353 150.782 144.987 149.982 145.44C149.182 145.893 148.262 146.12 147.222 146.12ZM141.602 149.88V135.4H143.442V138.26L143.322 140.72L143.522 143.18V149.88H141.602ZM147.062 144.44C147.742 144.44 148.349 144.287 148.882 143.98C149.429 143.673 149.856 143.24 150.162 142.68C150.482 142.107 150.642 141.447 150.642 140.7C150.642 139.94 150.482 139.287 150.162 138.74C149.856 138.18 149.429 137.747 148.882 137.44C148.349 137.133 147.742 136.98 147.062 136.98C146.396 136.98 145.789 137.133 145.242 137.44C144.709 137.747 144.282 138.18 143.962 138.74C143.656 139.287 143.502 139.94 143.502 140.7C143.502 141.447 143.656 142.107 143.962 142.68C144.282 143.24 144.709 143.673 145.242 143.98C145.789 144.287 146.396 144.44 147.062 144.44ZM161.774 146V143.76L161.674 143.34V139.52C161.674 138.707 161.434 138.08 160.954 137.64C160.487 137.187 159.781 136.96 158.834 136.96C158.207 136.96 157.594 137.067 156.994 137.28C156.394 137.48 155.887 137.753 155.474 138.1L154.674 136.66C155.221 136.22 155.874 135.887 156.634 135.66C157.407 135.42 158.214 135.3 159.054 135.3C160.507 135.3 161.627 135.653 162.414 136.36C163.201 137.067 163.594 138.147 163.594 139.6V146H161.774ZM158.294 146.12C157.507 146.12 156.814 145.987 156.214 145.72C155.627 145.453 155.174 145.087 154.854 144.62C154.534 144.14 154.374 143.6 154.374 143C154.374 142.427 154.507 141.907 154.774 141.44C155.054 140.973 155.501 140.6 156.114 140.32C156.741 140.04 157.581 139.9 158.634 139.9H161.994V141.28H158.714C157.754 141.28 157.107 141.44 156.774 141.76C156.441 142.08 156.274 142.467 156.274 142.92C156.274 143.44 156.481 143.86 156.894 144.18C157.307 144.487 157.881 144.64 158.614 144.64C159.334 144.64 159.961 144.48 160.494 144.16C161.041 143.84 161.434 143.373 161.674 142.76L162.054 144.08C161.801 144.707 161.354 145.207 160.714 145.58C160.074 145.94 159.267 146.12 158.294 146.12Z" fill="white"/>
</g>
<defs>
<clipPath id="clip0_57_33">
<rect width="220" height="213" fill="white"/>
</clipPath>
</defs>
</svg>
