<svg width="220" height="220" viewBox="0 0 220 220" fill="none" xmlns="http://www.w3.org/2000/svg">
<g clip-path="url(#clip0_57_27)">
<path d="M114.817 23.2196L147.166 1.47472C152.29 -1.97042 159.269 0.920794 160.457 6.98018L167.958 45.2279C168.633 48.6731 171.327 51.3661 174.772 52.0416L213.022 59.5421C219.081 60.7288 221.97 67.7091 218.527 72.8318L196.785 105.18C194.828 108.094 194.828 111.901 196.785 114.815L218.527 147.163C221.972 152.288 219.081 159.266 213.022 160.455L174.772 167.956C171.327 168.631 168.636 171.324 167.958 174.77L160.457 213.017C159.269 219.077 152.29 221.968 147.166 218.523L114.817 196.78C111.904 194.821 108.096 194.821 105.182 196.78L72.834 218.523C67.709 221.968 60.7309 219.077 59.542 213.017L52.0416 174.77C51.366 171.324 48.673 168.631 45.2278 167.956L6.97785 160.455C0.918462 159.269 -1.9705 152.288 1.47239 147.163L23.215 114.815C25.1718 111.901 25.1718 108.094 23.215 105.18L1.47464 72.834C-1.9705 67.7091 0.920713 60.731 6.9801 59.5444L45.2301 52.0439C48.6752 51.3684 51.366 48.6753 52.0438 45.2302L59.542 6.98018C60.7309 0.920794 67.709 -1.97042 72.834 1.47472L105.182 23.2173C108.096 25.1763 111.904 25.1763 114.817 23.2173" fill="#2DC6CB"/>
<path d="M53.9167 82.0009V70.6809H47.7767L47.6767 73.6209C47.6367 74.6076 47.57 75.5543 47.4767 76.4609C47.3967 77.3676 47.2767 78.1876 47.1167 78.9209C46.9567 79.6409 46.73 80.2343 46.4367 80.7009C46.1567 81.1676 45.7967 81.4543 45.3567 81.5609L43.1967 81.2009C43.7167 81.2409 44.1433 81.0676 44.4767 80.6809C44.8233 80.2809 45.09 79.7276 45.2767 79.0209C45.4767 78.3009 45.6233 77.4676 45.7167 76.5209C45.81 75.5609 45.8767 74.5343 45.9167 73.4409L46.0567 68.9409H55.8967V82.0009H53.9167ZM42.6967 86.0009L42.7167 81.2009H57.9567V86.0009H56.0967V82.9409H44.5767L44.5567 86.0009H42.6967ZM58.6109 82.9209L58.7309 81.3009C58.8242 81.3143 58.9109 81.3276 58.9909 81.3409C59.0709 81.3543 59.1442 81.3609 59.2109 81.3609C59.6376 81.3609 59.9709 81.2143 60.2109 80.9209C60.4642 80.6276 60.6509 80.2409 60.7709 79.7609C60.8909 79.2676 60.9776 78.7143 61.0309 78.1009C61.0842 77.4876 61.1242 76.8743 61.1509 76.2609L61.3309 72.3409H69.4709V82.9409H67.5509V73.4609L68.0109 74.0209H62.5709L63.0109 73.4409L62.8709 76.3809C62.8309 77.3143 62.7576 78.1876 62.6509 79.0009C62.5442 79.8143 62.3776 80.5276 62.1509 81.1409C61.9376 81.7543 61.6376 82.2343 61.2509 82.5809C60.8776 82.9276 60.3909 83.1009 59.7909 83.1009C59.6176 83.1009 59.4309 83.0809 59.2309 83.0409C59.0442 83.0143 58.8376 82.9743 58.6109 82.9209ZM79.9634 82.9409V79.2209L80.2634 79.5809H76.8834C75.4701 79.5809 74.3634 79.2809 73.5634 78.6809C72.7767 78.0809 72.3834 77.2076 72.3834 76.0609C72.3834 74.8343 72.8034 73.9076 73.6434 73.2809C74.4967 72.6543 75.6301 72.3409 77.0434 72.3409H81.6834V82.9409H79.9634ZM72.2834 82.9409L75.1634 78.8809H77.1434L74.3434 82.9409H72.2834ZM79.9634 78.6209V73.4809L80.2634 74.0209H77.1034C76.2234 74.0209 75.5434 74.1876 75.0634 74.5209C74.5834 74.8409 74.3434 75.3743 74.3434 76.1209C74.3434 77.5076 75.2367 78.2009 77.0234 78.2009H80.2634L79.9634 78.6209ZM95.4206 83.0609C94.3406 83.0609 93.3739 82.8276 92.5206 82.3609C91.6806 81.8943 91.0206 81.2543 90.5406 80.4409C90.0606 79.6276 89.8206 78.6943 89.8206 77.6409C89.8206 76.5876 90.0606 75.6543 90.5406 74.8409C91.0206 74.0276 91.6806 73.3943 92.5206 72.9409C93.3739 72.4743 94.3406 72.2409 95.4206 72.2409C96.3806 72.2409 97.2339 72.4343 97.9806 72.8209C98.7406 73.1943 99.3272 73.7543 99.7406 74.5009L98.2806 75.4409C97.9339 74.9209 97.5072 74.5409 97.0006 74.3009C96.5072 74.0476 95.9739 73.9209 95.4006 73.9209C94.7072 73.9209 94.0872 74.0743 93.5406 74.3809C92.9939 74.6876 92.5606 75.1209 92.2406 75.6809C91.9206 76.2276 91.7606 76.8809 91.7606 77.6409C91.7606 78.4009 91.9206 79.0609 92.2406 79.6209C92.5606 80.1809 92.9939 80.6143 93.5406 80.9209C94.0872 81.2276 94.7072 81.3809 95.4006 81.3809C95.9739 81.3809 96.5072 81.2609 97.0006 81.0209C97.5072 80.7676 97.9339 80.3809 98.2806 79.8609L99.7406 80.7809C99.3272 81.5143 98.7406 82.0809 97.9806 82.4809C97.2339 82.8676 96.3806 83.0609 95.4206 83.0609ZM108.726 82.9409V80.7009L108.626 80.2809V76.4609C108.626 75.6476 108.386 75.0209 107.906 74.5809C107.44 74.1276 106.733 73.9009 105.786 73.9009C105.16 73.9009 104.546 74.0076 103.946 74.2209C103.346 74.4209 102.84 74.6943 102.426 75.0409L101.626 73.6009C102.173 73.1609 102.826 72.8276 103.586 72.6009C104.36 72.3609 105.166 72.2409 106.006 72.2409C107.46 72.2409 108.58 72.5943 109.366 73.3009C110.153 74.0076 110.546 75.0876 110.546 76.5409V82.9409H108.726ZM105.246 83.0609C104.46 83.0609 103.766 82.9276 103.166 82.6609C102.58 82.3943 102.126 82.0276 101.806 81.5609C101.486 81.0809 101.326 80.5409 101.326 79.9409C101.326 79.3676 101.46 78.8476 101.726 78.3809C102.006 77.9143 102.453 77.5409 103.066 77.2609C103.693 76.9809 104.533 76.8409 105.586 76.8409H108.946V78.2209H105.666C104.706 78.2209 104.06 78.3809 103.726 78.7009C103.393 79.0209 103.226 79.4076 103.226 79.8609C103.226 80.3809 103.433 80.8009 103.846 81.1209C104.26 81.4276 104.833 81.5809 105.566 81.5809C106.286 81.5809 106.913 81.4209 107.446 81.1009C107.993 80.7809 108.386 80.3143 108.626 79.7009L109.006 81.0209C108.753 81.6476 108.306 82.1476 107.666 82.5209C107.026 82.8809 106.22 83.0609 105.246 83.0609ZM112.244 82.9209L112.364 81.3009C112.457 81.3143 112.544 81.3276 112.624 81.3409C112.704 81.3543 112.777 81.3609 112.844 81.3609C113.27 81.3609 113.604 81.2143 113.844 80.9209C114.097 80.6276 114.284 80.2409 114.404 79.7609C114.524 79.2676 114.61 78.7143 114.664 78.1009C114.717 77.4876 114.757 76.8743 114.784 76.2609L114.964 72.3409H123.104V82.9409H121.184V73.4609L121.644 74.0209H116.204L116.644 73.4409L116.504 76.3809C116.464 77.3143 116.39 78.1876 116.284 79.0009C116.177 79.8143 116.01 80.5276 115.784 81.1409C115.57 81.7543 115.27 82.2343 114.884 82.5809C114.51 82.9276 114.024 83.1009 113.424 83.1009C113.25 83.1009 113.064 83.0809 112.864 83.0409C112.677 83.0143 112.47 82.9743 112.244 82.9209ZM131.356 83.0609C130.29 83.0609 129.343 82.8276 128.516 82.3609C127.69 81.8943 127.036 81.2543 126.556 80.4409C126.076 79.6143 125.836 78.6809 125.836 77.6409C125.836 76.5876 126.076 75.6543 126.556 74.8409C127.036 74.0276 127.69 73.3943 128.516 72.9409C129.343 72.4743 130.29 72.2409 131.356 72.2409C132.41 72.2409 133.35 72.4743 134.176 72.9409C135.016 73.3943 135.67 74.0276 136.136 74.8409C136.616 75.6409 136.856 76.5743 136.856 77.6409C136.856 78.6943 136.616 79.6276 136.136 80.4409C135.67 81.2543 135.016 81.8943 134.176 82.3609C133.35 82.8276 132.41 83.0609 131.356 83.0609ZM131.356 81.3809C132.036 81.3809 132.643 81.2276 133.176 80.9209C133.723 80.6143 134.15 80.1809 134.456 79.6209C134.763 79.0476 134.916 78.3876 134.916 77.6409C134.916 76.8809 134.763 76.2276 134.456 75.6809C134.15 75.1209 133.723 74.6876 133.176 74.3809C132.643 74.0743 132.036 73.9209 131.356 73.9209C130.676 73.9209 130.07 74.0743 129.536 74.3809C129.003 74.6876 128.576 75.1209 128.256 75.6809C127.936 76.2276 127.776 76.8809 127.776 77.6409C127.776 78.3876 127.936 79.0476 128.256 79.6209C128.576 80.1809 129.003 80.6143 129.536 80.9209C130.07 81.2276 130.676 81.3809 131.356 81.3809ZM139.629 82.9409V72.3409H141.549V76.8409H147.589V72.3409H149.509V82.9409H147.589V78.5009H141.549V82.9409H139.629ZM157.782 83.0609C156.715 83.0609 155.769 82.8276 154.942 82.3609C154.115 81.8943 153.462 81.2543 152.982 80.4409C152.502 79.6143 152.262 78.6809 152.262 77.6409C152.262 76.5876 152.502 75.6543 152.982 74.8409C153.462 74.0276 154.115 73.3943 154.942 72.9409C155.769 72.4743 156.715 72.2409 157.782 72.2409C158.835 72.2409 159.775 72.4743 160.602 72.9409C161.442 73.3943 162.095 74.0276 162.562 74.8409C163.042 75.6409 163.282 76.5743 163.282 77.6409C163.282 78.6943 163.042 79.6276 162.562 80.4409C162.095 81.2543 161.442 81.8943 160.602 82.3609C159.775 82.8276 158.835 83.0609 157.782 83.0609ZM157.782 81.3809C158.462 81.3809 159.069 81.2276 159.602 80.9209C160.149 80.6143 160.575 80.1809 160.882 79.6209C161.189 79.0476 161.342 78.3876 161.342 77.6409C161.342 76.8809 161.189 76.2276 160.882 75.6809C160.575 75.1209 160.149 74.6876 159.602 74.3809C159.069 74.0743 158.462 73.9209 157.782 73.9209C157.102 73.9209 156.495 74.0743 155.962 74.3809C155.429 74.6876 155.002 75.1209 154.682 75.6809C154.362 76.2276 154.202 76.8809 154.202 77.6409C154.202 78.3876 154.362 79.0476 154.682 79.6209C155.002 80.1809 155.429 80.6143 155.962 80.9209C156.495 81.2276 157.102 81.3809 157.782 81.3809ZM166.054 82.9409V72.3409H170.974C172.214 72.3409 173.188 72.5809 173.894 73.0609C174.614 73.5276 174.974 74.1943 174.974 75.0609C174.974 75.9276 174.634 76.6009 173.954 77.0809C173.288 77.5476 172.401 77.7809 171.294 77.7809L171.594 77.2609C172.861 77.2609 173.801 77.4943 174.414 77.9609C175.028 78.4276 175.334 79.1143 175.334 80.0209C175.334 80.9409 174.988 81.6609 174.294 82.1809C173.614 82.6876 172.568 82.9409 171.154 82.9409H166.054ZM167.934 81.4609H171.014C171.814 81.4609 172.414 81.3409 172.814 81.1009C173.214 80.8476 173.414 80.4476 173.414 79.9009C173.414 79.3409 173.228 78.9343 172.854 78.6809C172.494 78.4143 171.921 78.2809 171.134 78.2809H167.934V81.4609ZM167.934 76.9009H170.814C171.548 76.9009 172.101 76.7676 172.474 76.5009C172.861 76.2209 173.054 75.8343 173.054 75.3409C173.054 74.8343 172.861 74.4543 172.474 74.2009C172.101 73.9476 171.548 73.8209 170.814 73.8209H167.934V76.9009ZM65.8243 106.941L61.7243 101.781L63.3043 100.821L68.0843 106.941H65.8243ZM58.1443 106.941V96.3409H60.0643V106.941H58.1443ZM59.4843 102.461V100.821H62.9843V102.461H59.4843ZM63.4643 101.861L61.6843 101.621L65.7443 96.3409H67.8043L63.4643 101.861ZM75.7174 107.061C74.8375 107.061 74.0308 106.861 73.2975 106.461C72.5774 106.048 71.9974 105.441 71.5574 104.641C71.1308 103.841 70.9174 102.841 70.9174 101.641C70.9174 100.441 71.1241 99.4409 71.5374 98.6409C71.9641 97.8409 72.5374 97.2409 73.2574 96.8409C73.9908 96.4409 74.8108 96.2409 75.7174 96.2409C76.7575 96.2409 77.6775 96.4676 78.4775 96.9209C79.2775 97.3743 79.9108 98.0076 80.3775 98.8209C80.8441 99.6209 81.0775 100.561 81.0775 101.641C81.0775 102.721 80.8441 103.668 80.3775 104.481C79.9108 105.294 79.2775 105.928 78.4775 106.381C77.6775 106.834 76.7575 107.061 75.7174 107.061ZM70.0974 110.821V96.3409H71.9374V99.2009L71.8174 101.661L72.0174 104.121V110.821H70.0974ZM75.5575 105.381C76.2375 105.381 76.8441 105.228 77.3774 104.921C77.9241 104.614 78.3508 104.181 78.6575 103.621C78.9775 103.048 79.1374 102.388 79.1374 101.641C79.1374 100.881 78.9775 100.228 78.6575 99.6809C78.3508 99.1209 77.9241 98.6876 77.3774 98.3809C76.8441 98.0743 76.2375 97.9209 75.5575 97.9209C74.8908 97.9209 74.2841 98.0743 73.7374 98.3809C73.2041 98.6876 72.7774 99.1209 72.4574 99.6809C72.1508 100.228 71.9974 100.881 71.9974 101.641C71.9974 102.388 72.1508 103.048 72.4574 103.621C72.7774 104.181 73.2041 104.614 73.7374 104.921C74.2841 105.228 74.8908 105.381 75.5575 105.381ZM90.2693 106.941V104.701L90.1693 104.281V100.461C90.1693 99.6476 89.9293 99.0209 89.4493 98.5809C88.9827 98.1276 88.276 97.9009 87.3293 97.9009C86.7027 97.9009 86.0893 98.0076 85.4893 98.2209C84.8893 98.4209 84.3827 98.6943 83.9693 99.0409L83.1693 97.6009C83.716 97.1609 84.3693 96.8276 85.1293 96.6009C85.9027 96.3609 86.7093 96.2409 87.5493 96.2409C89.0027 96.2409 90.1227 96.5943 90.9093 97.3009C91.696 98.0076 92.0893 99.0876 92.0893 100.541V106.941H90.2693ZM86.7893 107.061C86.0027 107.061 85.3093 106.928 84.7093 106.661C84.1227 106.394 83.6693 106.028 83.3493 105.561C83.0293 105.081 82.8693 104.541 82.8693 103.941C82.8693 103.368 83.0027 102.848 83.2693 102.381C83.5493 101.914 83.996 101.541 84.6093 101.261C85.236 100.981 86.076 100.841 87.1293 100.841H90.4893V102.221H87.2093C86.2493 102.221 85.6027 102.381 85.2693 102.701C84.936 103.021 84.7693 103.408 84.7693 103.861C84.7693 104.381 84.976 104.801 85.3893 105.121C85.8027 105.428 86.376 105.581 87.1093 105.581C87.8293 105.581 88.456 105.421 88.9893 105.101C89.536 104.781 89.9293 104.314 90.1693 103.701L90.5493 105.021C90.296 105.648 89.8493 106.148 89.2093 106.521C88.5693 106.881 87.7627 107.061 86.7893 107.061ZM100.167 107.061C99.0867 107.061 98.12 106.828 97.2667 106.361C96.4267 105.894 95.7667 105.254 95.2867 104.441C94.8067 103.628 94.5667 102.694 94.5667 101.641C94.5667 100.588 94.8067 99.6543 95.2867 98.8409C95.7667 98.0276 96.4267 97.3943 97.2667 96.9409C98.12 96.4743 99.0867 96.2409 100.167 96.2409C101.127 96.2409 101.98 96.4343 102.727 96.8209C103.487 97.1943 104.073 97.7543 104.487 98.5009L103.027 99.4409C102.68 98.9209 102.253 98.5409 101.747 98.3009C101.253 98.0476 100.72 97.9209 100.147 97.9209C99.4533 97.9209 98.8333 98.0743 98.2867 98.3809C97.74 98.6876 97.3067 99.1209 96.9867 99.6809C96.6667 100.228 96.5067 100.881 96.5067 101.641C96.5067 102.401 96.6667 103.061 96.9867 103.621C97.3067 104.181 97.74 104.614 98.2867 104.921C98.8333 105.228 99.4533 105.381 100.147 105.381C100.72 105.381 101.253 105.261 101.747 105.021C102.253 104.768 102.68 104.381 103.027 103.861L104.487 104.781C104.073 105.514 103.487 106.081 102.727 106.481C101.98 106.868 101.127 107.061 100.167 107.061ZM111.356 107.061C110.29 107.061 109.343 106.828 108.516 106.361C107.69 105.894 107.036 105.254 106.556 104.441C106.076 103.614 105.836 102.681 105.836 101.641C105.836 100.588 106.076 99.6543 106.556 98.8409C107.036 98.0276 107.69 97.3943 108.516 96.9409C109.343 96.4743 110.29 96.2409 111.356 96.2409C112.41 96.2409 113.35 96.4743 114.176 96.9409C115.016 97.3943 115.67 98.0276 116.136 98.8409C116.616 99.6409 116.856 100.574 116.856 101.641C116.856 102.694 116.616 103.628 116.136 104.441C115.67 105.254 115.016 105.894 114.176 106.361C113.35 106.828 112.41 107.061 111.356 107.061ZM111.356 105.381C112.036 105.381 112.643 105.228 113.176 104.921C113.723 104.614 114.15 104.181 114.456 103.621C114.763 103.048 114.916 102.388 114.916 101.641C114.916 100.881 114.763 100.228 114.456 99.6809C114.15 99.1209 113.723 98.6876 113.176 98.3809C112.643 98.0743 112.036 97.9209 111.356 97.9209C110.676 97.9209 110.07 98.0743 109.536 98.3809C109.003 98.6876 108.576 99.1209 108.256 99.6809C107.936 100.228 107.776 100.881 107.776 101.641C107.776 102.388 107.936 103.048 108.256 103.621C108.576 104.181 109.003 104.614 109.536 104.921C110.07 105.228 110.676 105.381 111.356 105.381ZM121.338 106.941V97.5209L121.818 98.0209H117.458V96.3409H127.138V98.0209H122.798L123.258 97.5209V106.941H121.338ZM139.581 106.941V96.3409H141.501V106.941H139.581ZM133.881 99.9409C135.228 99.9543 136.248 100.261 136.941 100.861C137.648 101.461 138.001 102.308 138.001 103.401C138.001 104.548 137.615 105.434 136.841 106.061C136.081 106.674 134.988 106.974 133.561 106.961L129.101 106.941V96.3409H131.021V99.9209L133.881 99.9409ZM133.421 105.501C134.275 105.514 134.928 105.341 135.381 104.981C135.835 104.621 136.061 104.088 136.061 103.381C136.061 102.688 135.835 102.181 135.381 101.861C134.941 101.541 134.288 101.374 133.421 101.361L131.021 101.321V105.481L133.421 105.501ZM150.605 106.941V96.3409H152.525V104.061L159.025 96.3409H160.765V106.941H158.845V99.2209L152.365 106.941H150.605ZM62.5291 130.941V120.341H64.4491V124.841H70.4891V120.341H72.4091V130.941H70.4891V126.501H64.4491V130.941H62.5291ZM80.6824 131.061C79.6157 131.061 78.669 130.828 77.8424 130.361C77.0157 129.894 76.3624 129.254 75.8824 128.441C75.4024 127.614 75.1624 126.681 75.1624 125.641C75.1624 124.588 75.4024 123.654 75.8824 122.841C76.3624 122.028 77.0157 121.394 77.8424 120.941C78.669 120.474 79.6157 120.241 80.6824 120.241C81.7357 120.241 82.6757 120.474 83.5024 120.941C84.3424 121.394 84.9957 122.028 85.4624 122.841C85.9424 123.641 86.1824 124.574 86.1824 125.641C86.1824 126.694 85.9424 127.628 85.4624 128.441C84.9957 129.254 84.3424 129.894 83.5024 130.361C82.6757 130.828 81.7357 131.061 80.6824 131.061ZM80.6824 129.381C81.3624 129.381 81.969 129.228 82.5024 128.921C83.049 128.614 83.4757 128.181 83.7824 127.621C84.089 127.048 84.2424 126.388 84.2424 125.641C84.2424 124.881 84.089 124.228 83.7824 123.681C83.4757 123.121 83.049 122.688 82.5024 122.381C81.969 122.074 81.3624 121.921 80.6824 121.921C80.0024 121.921 79.3957 122.074 78.8624 122.381C78.329 122.688 77.9024 123.121 77.5824 123.681C77.2624 124.228 77.1024 124.881 77.1024 125.641C77.1024 126.388 77.2624 127.048 77.5824 127.621C77.9024 128.181 78.329 128.614 78.8624 128.921C79.3957 129.228 80.0024 129.381 80.6824 129.381ZM88.9549 130.941V120.341H96.7549V122.021H90.4149L90.8749 121.581V130.941H88.9549ZM101.016 130.941V121.521L101.496 122.021H97.1358V120.341H106.816V122.021H102.476L102.936 121.521V130.941H101.016ZM113.03 131.061C111.897 131.061 110.897 130.828 110.03 130.361C109.177 129.894 108.51 129.254 108.03 128.441C107.564 127.628 107.33 126.694 107.33 125.641C107.33 124.588 107.557 123.654 108.01 122.841C108.477 122.028 109.11 121.394 109.91 120.941C110.724 120.474 111.637 120.241 112.65 120.241C113.677 120.241 114.584 120.468 115.37 120.921C116.157 121.374 116.77 122.014 117.21 122.841C117.664 123.654 117.89 124.608 117.89 125.701C117.89 125.781 117.884 125.874 117.87 125.981C117.87 126.088 117.864 126.188 117.85 126.281H108.83V124.901H116.85L116.07 125.381C116.084 124.701 115.944 124.094 115.65 123.561C115.357 123.028 114.95 122.614 114.43 122.321C113.924 122.014 113.33 121.861 112.65 121.861C111.984 121.861 111.39 122.014 110.87 122.321C110.35 122.614 109.944 123.034 109.65 123.581C109.357 124.114 109.21 124.728 109.21 125.421V125.741C109.21 126.448 109.37 127.081 109.69 127.641C110.024 128.188 110.484 128.614 111.07 128.921C111.657 129.228 112.33 129.381 113.09 129.381C113.717 129.381 114.284 129.274 114.79 129.061C115.31 128.848 115.764 128.528 116.15 128.101L117.21 129.341C116.73 129.901 116.13 130.328 115.41 130.621C114.704 130.914 113.91 131.061 113.03 131.061ZM120.869 130.941V120.341H125.789C127.029 120.341 128.002 120.581 128.709 121.061C129.429 121.528 129.789 122.194 129.789 123.061C129.789 123.928 129.449 124.601 128.769 125.081C128.102 125.548 127.216 125.781 126.109 125.781L126.409 125.261C127.676 125.261 128.616 125.494 129.229 125.961C129.842 126.428 130.149 127.114 130.149 128.021C130.149 128.941 129.802 129.661 129.109 130.181C128.429 130.688 127.382 130.941 125.969 130.941H120.869ZM122.749 129.461H125.829C126.629 129.461 127.229 129.341 127.629 129.101C128.029 128.848 128.229 128.448 128.229 127.901C128.229 127.341 128.042 126.934 127.669 126.681C127.309 126.414 126.736 126.281 125.949 126.281H122.749V129.461ZM122.749 124.901H125.629C126.362 124.901 126.916 124.768 127.289 124.501C127.676 124.221 127.869 123.834 127.869 123.341C127.869 122.834 127.676 122.454 127.289 122.201C126.916 121.948 126.362 121.821 125.629 121.821H122.749V124.901ZM143.634 130.941V120.341H145.554V130.941H143.634ZM137.934 123.941C139.281 123.954 140.301 124.261 140.994 124.861C141.701 125.461 142.054 126.308 142.054 127.401C142.054 128.548 141.667 129.434 140.894 130.061C140.134 130.674 139.041 130.974 137.614 130.961L133.154 130.941V120.341H135.074V123.921L137.934 123.941ZM137.474 129.501C138.327 129.514 138.981 129.341 139.434 128.981C139.887 128.621 140.114 128.088 140.114 127.381C140.114 126.688 139.887 126.181 139.434 125.861C138.994 125.541 138.341 125.374 137.474 125.361L135.074 125.321V129.481L137.474 129.501ZM147.607 130.941L152.167 125.021L152.147 126.001L147.807 120.341H149.947L153.267 124.701H152.447L155.767 120.341H157.867L153.467 126.041L153.487 125.021L158.087 130.941H155.907L152.407 126.301L153.187 126.421L149.747 130.941H147.607ZM79.3952 155.061C78.3152 155.061 77.3485 154.828 76.4952 154.361C75.6552 153.894 74.9952 153.254 74.5152 152.441C74.0352 151.628 73.7952 150.694 73.7952 149.641C73.7952 148.588 74.0352 147.654 74.5152 146.841C74.9952 146.028 75.6552 145.394 76.4952 144.941C77.3485 144.474 78.3152 144.241 79.3952 144.241C80.3552 144.241 81.2085 144.434 81.9552 144.821C82.7152 145.194 83.3019 145.754 83.7152 146.501L82.2552 147.441C81.9085 146.921 81.4819 146.541 80.9752 146.301C80.4819 146.048 79.9485 145.921 79.3752 145.921C78.6819 145.921 78.0619 146.074 77.5152 146.381C76.9685 146.688 76.5352 147.121 76.2152 147.681C75.8952 148.228 75.7352 148.881 75.7352 149.641C75.7352 150.401 75.8952 151.061 76.2152 151.621C76.5352 152.181 76.9685 152.614 77.5152 152.921C78.0619 153.228 78.6819 153.381 79.3752 153.381C79.9485 153.381 80.4819 153.261 80.9752 153.021C81.4819 152.768 81.9085 152.381 82.2552 151.861L83.7152 152.781C83.3019 153.514 82.7152 154.081 81.9552 154.481C81.2085 154.868 80.3552 155.061 79.3952 155.061ZM88.1642 154.941V145.521L88.6442 146.021H84.2842V144.341H93.9642V146.021H89.6242L90.0842 145.521V154.941H88.1642ZM96.4675 158.941C95.9609 158.941 95.4675 158.854 94.9875 158.681C94.5075 158.521 94.0942 158.281 93.7475 157.961L94.5675 156.521C94.8342 156.774 95.1275 156.968 95.4475 157.101C95.7675 157.234 96.1075 157.301 96.4675 157.301C96.9342 157.301 97.3209 157.181 97.6275 156.941C97.9342 156.701 98.2209 156.274 98.4875 155.661L99.1475 154.201L99.3475 153.961L103.508 144.341H105.388L100.248 156.001C99.9409 156.748 99.5942 157.334 99.2075 157.761C98.8342 158.188 98.4209 158.488 97.9675 158.661C97.5142 158.848 97.0142 158.941 96.4675 158.941ZM98.9875 155.281L94.1475 144.341H96.1475L100.268 153.781L98.9875 155.281ZM114.046 154.041V146.021H109.446L109.346 148.061C109.32 148.728 109.273 149.374 109.206 150.001C109.153 150.614 109.06 151.181 108.926 151.701C108.806 152.221 108.626 152.648 108.386 152.981C108.146 153.314 107.826 153.521 107.426 153.601L105.526 153.261C105.94 153.274 106.273 153.141 106.526 152.861C106.78 152.568 106.973 152.168 107.106 151.661C107.253 151.154 107.36 150.581 107.426 149.941C107.493 149.288 107.546 148.614 107.586 147.921L107.746 144.341H115.966V154.041H114.046ZM105.106 157.401V153.261H117.586V157.401H115.786V154.941H106.926V157.401H105.106ZM120.088 154.941V144.341H122.008V152.061L128.508 144.341H130.248V154.941H128.328V147.221L121.848 154.941H120.088ZM133.974 154.941V144.341H135.894V152.061L142.394 144.341H144.134V154.941H142.214V147.221L135.734 154.941H133.974ZM138.934 142.961C137.961 142.961 137.194 142.728 136.634 142.261C136.088 141.781 135.808 141.094 135.794 140.201H137.094C137.108 140.708 137.274 141.108 137.594 141.401C137.928 141.694 138.368 141.841 138.914 141.841C139.461 141.841 139.901 141.694 140.234 141.401C140.568 141.108 140.741 140.708 140.754 140.201H142.094C142.081 141.094 141.794 141.781 141.234 142.261C140.674 142.728 139.908 142.961 138.934 142.961Z" fill="white"/>
</g>
<defs>
<clipPath id="clip0_57_27">
<rect width="220" height="220" fill="white"/>
</clipPath>
</defs>
</svg>
